<svg width="81" height="80" viewBox="0 0 81 80" fill="none" xmlns="http://www.w3.org/2000/svg">
<g clip-path="url(#clip0_115_6219)">
<path d="M79.4927 34.7237L66.4442 22.7806V4.6875H67.2255C68.5199 4.6875 69.5692 3.63812 69.5692 2.34375C69.5692 1.04937 68.5199 0 67.2255 0H51.6005C50.3061 0 49.2567 1.04937 49.2567 2.34375C49.2567 3.63812 50.3061 4.6875 51.6005 4.6875H52.3817V9.90953L42.2267 0.614844C41.33 -0.205937 39.9542 -0.204844 39.0588 0.617656L1.83876 34.8077C0.885477 35.6833 0.822664 37.1659 1.69829 38.1192C2.57516 39.0737 4.05782 39.1342 5.00985 38.2597L10.1864 33.5045V77.6562C10.1864 78.9506 11.2358 80 12.5302 80H68.7802C70.0745 80 71.1239 78.9506 71.1239 77.6562V33.4184L76.3278 38.1816C77.2825 39.0555 78.7652 38.99 79.6391 38.035C80.513 37.0802 80.4473 35.5977 79.4927 34.7237ZM57.0691 4.6875H61.7566V18.4903L57.0691 14.2V4.6875ZM66.4363 75.3125H14.8738V29.1987L40.6472 5.52359L66.4363 29.1281V75.3125Z" fill="#333333"/>
<path d="M33.7012 26.0938V53.0973C31.7262 54.9867 30.5762 57.633 30.5762 60.3906C30.5762 65.9477 35.0973 70.4688 40.6543 70.4688C46.2113 70.4688 50.7324 65.9477 50.7324 60.3906C50.7324 57.6764 49.6632 55.1323 47.7637 53.2487V26.0938C47.7637 22.2167 44.6095 19.0625 40.7324 19.0625C36.8554 19.0625 33.7012 22.2167 33.7012 26.0938ZM40.6543 65.7812C37.682 65.7812 35.2637 63.363 35.2637 60.3906C35.2637 58.6686 36.0581 57.0905 37.4432 56.0608C37.7366 55.8427 37.9749 55.559 38.139 55.2324C38.3032 54.9058 38.3887 54.5454 38.3887 54.1798V42.3438H43.0762V54.3013C43.0762 54.6567 43.157 55.0075 43.3126 55.3271C43.4682 55.6467 43.6944 55.9267 43.9742 56.1459C45.2901 57.1773 46.0449 58.7244 46.0449 60.3906C46.0449 63.363 43.6268 65.7812 40.6543 65.7812ZM40.7324 23.75C42.0248 23.75 43.0762 24.8014 43.0762 26.0938V37.6562H38.3887V26.0938C38.3887 24.8014 39.4401 23.75 40.7324 23.75ZM52.3853 42.3438H54.729C56.0234 42.3438 57.0728 41.2944 57.0728 40C57.0728 38.7056 56.0234 37.6562 54.729 37.6562H52.3853C51.0909 37.6562 50.0415 38.7056 50.0415 40C50.0415 41.2944 51.0909 42.3438 52.3853 42.3438ZM52.3853 32.9688H54.729C56.0234 32.9688 57.0728 31.9194 57.0728 30.625C57.0728 29.3306 56.0234 28.2812 54.729 28.2812H52.3853C51.0909 28.2812 50.0415 29.3306 50.0415 30.625C50.0415 31.9194 51.0909 32.9688 52.3853 32.9688ZM52.3853 51.7188H54.729C56.0234 51.7188 57.0728 50.6694 57.0728 49.375C57.0728 48.0806 56.0234 47.0312 54.729 47.0312H52.3853C51.0909 47.0312 50.0415 48.0806 50.0415 49.375C50.0415 50.6694 51.0909 51.7188 52.3853 51.7188ZM26.604 42.3438H28.9478C30.2421 42.3438 31.2915 41.2944 31.2915 40C31.2915 38.7056 30.2421 37.6562 28.9478 37.6562H26.604C25.3096 37.6562 24.2603 38.7056 24.2603 40C24.2603 41.2944 25.3096 42.3438 26.604 42.3438ZM26.604 32.9688H28.9478C30.2421 32.9688 31.2915 31.9194 31.2915 30.625C31.2915 29.3306 30.2421 28.2812 28.9478 28.2812H26.604C25.3096 28.2812 24.2603 29.3306 24.2603 30.625C24.2603 31.9194 25.3096 32.9688 26.604 32.9688ZM31.2915 49.375C31.2915 48.0806 30.2421 47.0312 28.9478 47.0312H26.604C25.3096 47.0312 24.2603 48.0806 24.2603 49.375C24.2603 50.6694 25.3096 51.7188 26.604 51.7188H28.9478C30.2421 51.7188 31.2915 50.6694 31.2915 49.375Z" fill="#65D3B9"/>
</g>
<defs>
<clipPath id="clip0_115_6219">
<rect width="80" height="80" fill="white" transform="translate(0.666504)"/>
</clipPath>
</defs>
</svg>
