<svg width="80" height="80" viewBox="0 0 80 80" fill="none" xmlns="http://www.w3.org/2000/svg">
<g clip-path="url(#clip0_115_6225)">
<path d="M77.6472 37.9454C74.7887 37.9454 72.4146 37.0141 70.574 35.1815V11.7534C70.574 5.27263 65.3013 0 58.8204 0C52.3395 0 47.067 5.27263 47.067 11.7534V35.1879C43.2624 38.9694 36.1688 39.0177 32.3747 34.5914C31.4366 33.4968 29.7406 33.4962 28.8019 34.5914C24.9453 39.091 17.4234 39.1087 13.5512 34.5914C12.5595 33.434 10.7485 33.5142 9.85914 34.7424C9.83592 34.7744 7.39828 37.9453 2.35294 37.9453C1.05349 37.9453 0 38.9987 0 40.2982C0 41.5976 1.05349 42.6511 2.35294 42.6511C6.84424 42.6511 9.95906 40.8817 11.7689 39.416C17.0155 43.7478 25.3395 43.7493 30.5882 39.4126C35.3241 43.3253 42.2529 43.5191 47.067 40.9744V47.3228C44.894 49.1172 43.161 51.3857 42.001 53.954C40.8411 56.5223 40.285 59.3223 40.3755 62.139C40.6852 71.9787 48.8058 80 58.8204 80C68.9962 80 77.2748 71.7214 77.2748 61.5457C77.2748 56.0445 74.7906 50.8154 70.5738 47.3236V40.9711C72.664 42.0773 75.0471 42.6511 77.6471 42.6511C78.9465 42.6511 80 41.5976 80 40.2982C80 38.9987 78.9467 37.9454 77.6472 37.9454ZM58.8206 4.70588C62.7065 4.70588 65.8681 7.86745 65.8681 11.7534V35.2102C64.5639 36.4982 62.9933 37.3358 61.1733 37.7126V15.1311C61.1733 13.8317 60.1198 12.7782 58.8204 12.7782C57.5209 12.7782 56.4675 13.8317 56.4675 15.1311V37.7111C54.6474 37.3332 53.0769 36.494 51.7729 35.2039V11.7534C51.773 7.86745 54.9346 4.70588 58.8206 4.70588ZM58.8204 58.5889C60.4725 58.5889 61.8166 59.9329 61.8166 61.5849C61.8166 63.237 60.4726 64.581 58.8204 64.581C57.1685 64.581 55.8243 63.237 55.8243 61.5849C55.8243 59.9329 57.1685 58.5889 58.8204 58.5889ZM72.5691 61.5457C72.5691 69.1267 66.4016 75.2941 58.8206 75.2941C51.4745 75.2941 45.3101 69.3264 45.0791 61.9909C44.9347 57.4077 47.0718 53.0693 50.7956 50.386C51.0981 50.168 51.3444 49.8813 51.5143 49.5494C51.6843 49.2175 51.7729 48.85 51.7729 48.4772V40.9832C53.2078 41.7393 54.781 42.2433 56.4675 42.4841V54.2519C53.3682 55.2488 51.1184 58.1586 51.1184 61.5849C51.1184 65.8318 54.5735 69.2869 58.8204 69.2869C63.0673 69.2869 66.5225 65.8318 66.5225 61.5849C66.5225 58.1586 64.2728 55.2488 61.1733 54.2519V42.485C62.8596 42.2449 64.4329 41.7418 65.8681 40.9867V48.4773C65.8681 49.2337 66.2317 49.9442 66.8453 50.3862C70.4293 52.9686 72.5691 57.1405 72.5691 61.5457Z" fill="#65D3B9"/>
<path d="M27.9521 48.3651C24.0599 48.3651 20.8933 51.5316 20.8933 55.4239C20.8933 59.3161 24.0599 62.4827 27.9521 62.4827C31.8444 62.4827 35.011 59.3161 35.011 55.4239C35.011 51.5316 31.8445 48.3651 27.9521 48.3651ZM27.9521 57.7768C26.6547 57.7768 25.5992 56.7213 25.5992 55.4239C25.5992 54.1265 26.6547 53.0709 27.9521 53.0709C29.2495 53.0709 30.3051 54.1265 30.3051 55.4239C30.3051 56.7213 29.2497 57.7768 27.9521 57.7768ZM11.5862 59.4686C7.69393 59.4686 4.52734 62.6352 4.52734 66.5274C4.52734 70.4196 7.69393 73.5862 11.5862 73.5862C15.4784 73.5862 18.645 70.4196 18.645 66.5274C18.645 62.6352 15.4786 59.4686 11.5862 59.4686ZM11.5862 68.8804C10.2888 68.8804 9.23323 67.8248 9.23323 66.5274C9.23323 65.23 10.2888 64.1745 11.5862 64.1745C12.8836 64.1745 13.9391 65.23 13.9391 66.5274C13.9391 67.8248 12.8837 68.8804 11.5862 68.8804ZM10.1753 24.1785C9.25644 25.0975 9.25644 26.5872 10.1753 27.5061C11.0941 28.4248 12.584 28.425 13.5029 27.5061C16.8042 24.2047 16.8042 18.833 13.5029 15.5315C12.0329 14.0617 12.0326 11.6822 13.5029 10.2121C14.4218 9.29321 14.4218 7.80349 13.5029 6.88459C12.5841 5.96568 11.0942 5.96584 10.1753 6.88459C6.86617 10.1938 6.86585 15.5498 10.1753 18.8592C11.6419 20.3257 11.6419 22.7119 10.1753 24.1785ZM22.3146 24.1785C21.3957 25.0975 21.3957 26.5872 22.3146 27.5061C23.2334 28.425 24.7231 28.425 25.6422 27.5061C28.9515 24.1967 28.9517 18.841 25.6422 15.5313C24.1722 14.0615 24.1719 11.6821 25.6422 10.212C26.5611 9.29306 26.5611 7.80333 25.6422 6.88443C24.7236 5.96553 23.2337 5.96569 22.3146 6.88443C19.0055 10.1936 19.0051 15.5497 22.3146 18.859C23.7846 20.329 23.7849 22.7083 22.3146 24.1785ZM34.4539 24.1785C33.535 25.0975 33.535 26.5872 34.4539 27.5061C35.3727 28.425 36.8624 28.425 37.7815 27.5061C41.0908 24.1967 41.091 18.841 37.7815 15.5313C36.3115 14.0615 36.3112 11.6821 37.7815 10.212C38.7004 9.29306 38.7004 7.80333 37.7815 6.88443C36.8629 5.96553 35.373 5.96569 34.4539 6.88443C31.1448 10.1936 31.1444 15.5497 34.4539 18.859C35.9237 20.329 35.9242 22.7083 34.4539 24.1785Z" fill="#333333"/>
</g>
<defs>
<clipPath id="clip0_115_6225">
<rect width="80" height="80" fill="white"/>
</clipPath>
</defs>
</svg>
