<svg width="81" height="80" viewBox="0 0 81 80" fill="none" xmlns="http://www.w3.org/2000/svg">
<g clip-path="url(#clip0_115_6231)">
<path d="M40.4924 64.1628H8.28662V25.8906" stroke="#333333" stroke-width="4.68748" stroke-miterlimit="22.9256" stroke-linecap="round" stroke-linejoin="round"/>
<path d="M4.24756 29.2591L35.798 2.34375L59.1666 22.2791M4.24756 64.1984H40.3343M40.9265 35.9375H25.9662V64.1986" stroke="#333333" stroke-width="4.68748" stroke-miterlimit="22.9256" stroke-linecap="round" stroke-linejoin="round"/>
<path d="M25.9507 50.0711H28.9787M45.2577 23.125H72.0951C74.4758 23.125 76.4236 25.0728 76.4236 27.4536V73.3308C76.4236 75.7116 74.4758 77.6594 72.0951 77.6594H45.2577C42.8769 77.6594 40.9291 75.7116 40.9291 73.3308V27.4536C40.9291 25.0728 42.8769 23.125 45.2577 23.125Z" stroke="#333333" stroke-width="4.68748" stroke-miterlimit="22.9256" stroke-linecap="round" stroke-linejoin="round"/>
<path d="M49.9741 50.3558C52.4959 48.507 55.5396 47.507 58.6665 47.5C61.7933 47.4929 64.8415 48.4791 67.3716 50.3164M54.1927 56.5661C55.4714 55.5683 57.0454 55.0237 58.6673 55.018C60.2893 55.0124 61.8671 55.5459 63.1527 56.5347M50.2866 23.125H67.0591V27.8125C67.0591 30.3942 64.9533 32.5 62.3716 32.5H54.9741C52.3924 32.5 50.2866 30.3942 50.2866 27.8125V23.125Z" stroke="#65D3B9" stroke-width="4.68748" stroke-miterlimit="22.9256" stroke-linecap="round" stroke-linejoin="round"/>
</g>
<defs>
<clipPath id="clip0_115_6231">
<rect width="80" height="80" fill="white" transform="translate(0.333496)"/>
</clipPath>
</defs>
</svg>
