<svg width="81" height="80" viewBox="0 0 81 80" fill="none" xmlns="http://www.w3.org/2000/svg">
<g clip-path="url(#clip0_115_6240)">
<path d="M66.8413 20.5882C67.0584 10.6499 58.9546 2.3101 48.9526 2.34385C41.9135 2.34385 35.8248 6.40916 32.9035 12.3195C31.0432 10.7673 28.6499 9.83245 26.0378 9.83245C20.1646 9.83245 13.4807 14.554 13.4006 20.4081C7.51135 21.3909 3.02197 26.5096 3.02197 32.6779C3.02197 39.5489 8.59197 45.119 15.4631 45.119H65.8659C72.7368 45.119 78.307 39.549 78.307 32.6779C78.3068 26.8214 72.2915 21.9106 66.8413 20.5882Z" stroke="#333333" stroke-width="4.68749" stroke-miterlimit="10" stroke-linecap="round" stroke-linejoin="round"/>
<path d="M40.6621 62.1967V45.1153M48.6071 35.5023C47.1665 36.5181 45.4623 37.1056 43.6362 37.1056C38.4628 37.1056 34.2688 32.3914 34.2688 26.5763C34.2688 20.7611 38.4628 16.0469 43.6362 16.0469C45.8763 16.0469 47.9329 16.9308 49.5448 18.4053M31.7798 22.9084H43.2499M31.7798 30.2441H42.0181" stroke="#65D3B9" stroke-width="4.68749" stroke-miterlimit="10" stroke-linecap="round" stroke-linejoin="round"/>
<path d="M62.4087 72.6539L55.0806 68.8102V45.1172" stroke="#65D3B9" stroke-width="4.68749" stroke-miterlimit="10" stroke-linecap="round" stroke-linejoin="round"/>
<path d="M18.9204 72.6539L26.2485 68.8102V45.1172" stroke="#65D3B9" stroke-width="4.68749" stroke-miterlimit="10" stroke-linecap="round" stroke-linejoin="round"/>
<path d="M67.4085 77.6559C70.1699 77.6559 72.4084 75.4174 72.4084 72.6561C72.4084 69.8948 70.1699 67.6562 67.4085 67.6562C64.6472 67.6562 62.4087 69.8948 62.4087 72.6561C62.4087 75.4174 64.6472 77.6559 67.4085 77.6559Z" stroke="#333333" stroke-width="4.68749" stroke-miterlimit="10" stroke-linecap="round" stroke-linejoin="round"/>
<path d="M13.9203 77.6559C16.6816 77.6559 18.9201 75.4174 18.9201 72.6561C18.9201 69.8948 16.6816 67.6562 13.9203 67.6562C11.1589 67.6562 8.92041 69.8948 8.92041 72.6561C8.92041 75.4174 11.1589 77.6559 13.9203 77.6559Z" stroke="#333333" stroke-width="4.68749" stroke-miterlimit="10" stroke-linecap="round" stroke-linejoin="round"/>
<path d="M40.6624 72.2028C43.4238 72.2028 45.6623 69.9643 45.6623 67.203C45.6623 64.4416 43.4238 62.2031 40.6624 62.2031C37.9011 62.2031 35.6626 64.4416 35.6626 67.203C35.6626 69.9643 37.9011 72.2028 40.6624 72.2028Z" stroke="#333333" stroke-width="4.68749" stroke-miterlimit="10" stroke-linecap="round" stroke-linejoin="round"/>
</g>
<defs>
<clipPath id="clip0_115_6240">
<rect width="80" height="80" fill="white" transform="translate(0.666504)"/>
</clipPath>
</defs>
</svg>
