<svg width="80" height="80" viewBox="0 0 80 80" fill="none" xmlns="http://www.w3.org/2000/svg">
<g clip-path="url(#clip0_115_6251)">
<path d="M45.9461 48.2608V7.07531C45.9461 4.46219 43.8284 2.34375 41.2162 2.34375H7.07359C4.46141 2.34375 2.34375 4.46219 2.34375 7.07531V72.9247C2.34375 75.5378 4.46141 77.6562 7.07359 77.6562H45.9459" stroke="#333333" stroke-width="4.6875" stroke-miterlimit="10" stroke-linecap="round" stroke-linejoin="round"/>
<path d="M19.1627 11.5938H29.1272M2.34375 65.8877H31.5411" stroke="#333333" stroke-width="4.6875" stroke-miterlimit="10" stroke-linecap="round"/>
<path d="M45.9477 77.6531C54.0649 77.6531 60.6453 71.0728 60.6453 62.9555C60.6453 54.8382 54.0649 48.2578 45.9477 48.2578C37.8304 48.2578 31.25 54.8382 31.25 62.9555C31.25 71.0728 37.8304 77.6531 45.9477 77.6531Z" stroke="#333333" stroke-width="4.6875" stroke-miterlimit="10" stroke-linecap="round" stroke-linejoin="round"/>
<path d="M40.8034 63.5334L44.0697 66.5197L51.0858 59.5036M31.1619 41.9516C29.6778 43.4947 27.592 44.455 25.2822 44.455C20.7772 44.455 17.125 40.8025 17.125 36.2967M17.125 36.2967C17.125 31.7909 20.777 28.1384 25.2822 28.1384C27.5347 28.1384 29.5741 29.0516 31.0502 30.528M17.125 36.2967H23.9947M72.5591 29.1991L77.6548 35.5211M77.6548 35.5211L72.9573 41.3491M77.6548 35.5211H58.8772M62.313 23.7438L57.217 17.4217M57.217 17.4217L61.9145 11.5938M57.217 17.4217H75.9947" stroke="#65D3B9" stroke-width="4.6875" stroke-miterlimit="10" stroke-linecap="round" stroke-linejoin="round"/>
</g>
<defs>
<clipPath id="clip0_115_6251">
<rect width="80" height="80" fill="white"/>
</clipPath>
</defs>
</svg>
