<svg width="81" height="81" viewBox="0 0 81 81" fill="none" xmlns="http://www.w3.org/2000/svg">
<g clip-path="url(#clip0_115_6259)">
<path d="M49.5529 44.5625V42.462C49.5529 36.6473 44.6182 31.9336 38.5312 31.9336H21.3083C15.2212 31.9336 10.2866 36.6472 10.2866 42.462V44.5625M29.9196 31.8998C23.2185 31.8998 17.7863 26.5116 17.7863 19.8647V14.8791C17.7863 11.5556 19.1444 8.54719 21.3401 6.36953C23.666 4.0625 26.7172 2.84531 29.9996 2.84375C36.7732 2.84375 42.0529 8.18734 42.0529 14.8789V19.8647C42.0529 26.5116 36.6205 31.8998 29.9196 31.8998Z" stroke="#333333" stroke-width="4.68748" stroke-miterlimit="22.9256" stroke-linecap="round" stroke-linejoin="round"/>
<path d="M65.2554 15.0355V15.0631M2.67725 44.5625H57.1608L51.9468 78.1562H7.886L2.67725 44.5625ZM68.8951 2.84375C70.8061 3.41401 72.5562 4.4256 74.0043 5.79688C73.2677 7.05469 73.2052 8.66484 73.9822 10.0108C74.7599 11.3577 76.1868 12.1086 77.6452 12.0986C77.8746 13.0654 77.9902 14.0557 77.9897 15.0494C77.9897 16.0653 77.8704 17.0531 77.6455 18.0002C76.1869 17.9902 74.7601 18.7411 73.9824 20.088C73.2054 21.4338 73.2679 23.0434 74.004 24.3013C72.5741 25.6536 70.8313 26.6786 68.8951 27.2552C68.1744 25.987 66.8105 25.1266 65.2552 25.1266C63.6999 25.1266 62.3361 25.9869 61.6155 27.2552C59.7045 26.6848 57.9544 25.6732 56.5063 24.3019C57.2429 23.0441 57.3054 21.4341 56.5283 20.088C55.7507 18.7411 54.3238 17.9903 52.8654 18.0002C52.6361 17.0333 52.5205 16.043 52.521 15.0494C52.521 14.0336 52.6404 13.0458 52.8652 12.0988C54.3238 12.1088 55.7507 11.3578 56.5283 10.0109C57.3054 8.66516 57.2429 7.05547 56.5068 5.79766C57.9366 4.44531 59.6794 3.42031 61.6157 2.84391C62.3363 4.11203 63.7002 4.97234 65.2554 4.97234C66.8107 4.97219 68.1744 4.11188 68.8951 2.84375Z" stroke="#65D3B9" stroke-width="4.68748" stroke-miterlimit="22.9256" stroke-linecap="round" stroke-linejoin="round"/>
<path d="M39.6519 13.4369H29.0597C24.8472 13.4369 21.4116 10.4333 21.4116 6.75063V6.29688" stroke="#333333" stroke-width="4.68748" stroke-miterlimit="22.9256" stroke-linecap="round" stroke-linejoin="round"/>
<path fill-rule="evenodd" clip-rule="evenodd" d="M29.9194 66.047C32.5013 66.047 34.6069 63.9413 34.6069 61.3594C34.6069 58.7775 32.5012 56.6719 29.9194 56.6719C27.3377 56.6719 25.2319 58.7777 25.2319 61.3594C25.2318 63.9413 27.3376 66.047 29.9194 66.047Z" stroke="#65D3B9" stroke-width="4.68748" stroke-miterlimit="22.9256" stroke-linecap="round" stroke-linejoin="round"/>
</g>
<defs>
<clipPath id="clip0_115_6259">
<rect width="80" height="80" fill="white" transform="translate(0.333496 0.5)"/>
</clipPath>
</defs>
</svg>
