<svg width="52" height="52" viewBox="0 0 52 52" fill="none" xmlns="http://www.w3.org/2000/svg">
<path d="M50.2092 23.9356C50.2046 23.0787 49.953 22.2413 49.4847 21.5237C49.0163 20.806 48.3511 20.2386 47.5686 19.8894C46.4961 19.41 45.2123 18.9501 43.7661 18.5163C42.7228 15.1103 39.5849 12.6094 35.8409 12.6094H10.1139C7.90697 12.6124 5.79125 13.4904 4.23069 15.051C2.67012 16.6116 1.79207 18.7273 1.78906 20.9343V31.058C1.79207 33.265 2.67012 35.3807 4.23069 36.9413C5.79125 38.5018 7.90697 39.3799 10.1139 39.3829H35.8426C39.5866 39.3829 42.7228 36.882 43.7677 33.476C45.2139 33.0405 46.4977 32.5806 47.5718 32.1029C48.354 31.7534 49.019 31.1859 49.487 30.4683C49.955 29.7506 50.2063 28.9134 50.2108 28.0566L50.2157 25.9945L50.2092 23.9356ZM41.2408 31.058C41.2395 32.4895 40.6704 33.8619 39.6584 34.8743C38.6463 35.8866 37.274 36.4562 35.8426 36.4579H10.1139C8.68248 36.4562 7.31017 35.8866 6.29812 34.8743C5.28608 33.8619 4.71698 32.4895 4.71569 31.058V20.9343C4.71698 19.5028 5.28608 18.1303 6.29812 17.118C7.31017 16.1056 8.68248 15.5361 10.1139 15.5344H35.8426C37.274 15.5361 38.6463 16.1056 39.6584 17.118C40.6704 18.1303 41.2395 19.5028 41.2408 20.9343V31.058ZM47.2842 28.0485C47.2845 28.3421 47.199 28.6295 47.0382 28.8752C46.8774 29.1208 46.6483 29.3142 46.3791 29.4314C45.7307 29.7206 44.9848 30.0034 44.1674 30.2796V21.7126C44.9848 21.9889 45.7307 22.2733 46.3774 22.5609C46.6471 22.6777 46.8767 22.8708 47.0378 23.1166C47.1989 23.3623 47.2846 23.6499 47.2842 23.9438L47.2891 25.9929L47.2842 28.0485Z" fill="#333333"/>
<path d="M25.8375 24.5375H22.4266L25.3825 20.6082C25.498 20.4546 25.582 20.2797 25.6299 20.0936C25.6777 19.9074 25.6885 19.7137 25.6615 19.5234C25.6345 19.3331 25.5702 19.15 25.4725 18.9846C25.3747 18.8191 25.2453 18.6745 25.0916 18.5591C24.938 18.4437 24.7631 18.3596 24.577 18.3117C24.3908 18.2639 24.1971 18.2531 24.0068 18.2802C23.6225 18.3347 23.2757 18.5397 23.0425 18.85L18.6973 24.6301C18.291 25.1696 18.226 25.8797 18.5283 26.4842C18.8305 27.0887 19.4366 27.4641 20.1126 27.4641H23.5219L20.566 31.3934C20.3329 31.7037 20.2325 32.0939 20.2871 32.4782C20.3416 32.8624 20.5466 33.2093 20.8569 33.4425C21.1672 33.6756 21.5574 33.776 21.9417 33.7214C22.326 33.6669 22.6729 33.4619 22.906 33.1516L27.2513 27.3715C27.6575 26.832 27.7225 26.1202 27.4203 25.5174C27.118 24.9145 26.5119 24.5375 25.8375 24.5375Z" fill="#65D3B9"/>
</svg>
