<svg width="52" height="52" viewBox="0 0 52 52" fill="none" xmlns="http://www.w3.org/2000/svg">
<g clip-path="url(#clip0_2023_205)">
<path d="M44.2488 25.9974H39.2722M7.75391 25.9974H12.7305M26.0013 44.2449V39.2683M26.0013 7.75V12.7266M38.9073 38.9002L35.3823 35.3813M13.0954 13.0946L16.6205 16.6136M13.0954 38.9002L16.6205 35.3813M38.9073 13.0946L35.3823 16.6136" stroke="#65D3B9" stroke-width="2.23438" stroke-miterlimit="10" stroke-linecap="round" stroke-linejoin="round"/>
<path d="M26 19.9766L30.9766 24.3337V30.9691H21.0234V24.3337L26 19.9766Z" stroke="#333333" stroke-width="2.23438" stroke-miterlimit="10" stroke-linecap="round" stroke-linejoin="round"/>
<path d="M48.099 29.2687C49.9077 28.9753 51.1362 27.2713 50.8428 25.4626C50.5494 23.6539 48.8454 22.4254 47.0367 22.7188C45.228 23.0122 43.9995 24.7162 44.2929 26.5249C44.5863 28.3336 46.2903 29.5621 48.099 29.2687Z" stroke="#333333" stroke-width="2.23438" stroke-miterlimit="10" stroke-linecap="round" stroke-linejoin="round"/>
<path d="M7.71021 26.5304C8.00377 24.7217 6.77553 23.0175 4.96686 22.7239C3.15819 22.4304 1.45399 23.6586 1.16044 25.4673C0.866881 27.276 2.09512 28.9802 3.90379 29.2737C5.71247 29.5673 7.41666 28.339 7.71021 26.5304Z" stroke="#333333" stroke-width="2.23438" stroke-miterlimit="10" stroke-linecap="round" stroke-linejoin="round"/>
<path d="M26.5326 50.839C28.3413 50.5456 29.5698 48.8416 29.2764 47.0329C28.983 45.2242 27.279 43.9958 25.4703 44.2891C23.6616 44.5825 22.4331 46.2866 22.7265 48.0953C23.0199 49.904 24.7239 51.1324 26.5326 50.839Z" stroke="#333333" stroke-width="2.23438" stroke-miterlimit="10" stroke-linecap="round" stroke-linejoin="round"/>
<path d="M29.2766 4.96005C29.5702 3.15138 28.3419 1.44719 26.5333 1.15363C24.7246 0.860074 23.0204 2.08832 22.7268 3.89699C22.4333 5.70566 23.6615 7.40985 25.4702 7.70341C27.2789 7.99696 28.9831 6.76872 29.2766 4.96005Z" stroke="#333333" stroke-width="2.23438" stroke-miterlimit="10" stroke-linecap="round" stroke-linejoin="round"/>
<path d="M43.5888 43.5881C44.8845 42.2924 44.8844 40.1917 43.5887 38.8961C42.2931 37.6004 40.1924 37.6005 38.8967 38.8961C37.6011 40.1918 37.6011 42.2925 38.8968 43.5881C40.1925 44.8838 42.2932 44.8837 43.5888 43.5881Z" stroke="#333333" stroke-width="2.23438" stroke-miterlimit="10" stroke-linecap="round" stroke-linejoin="round"/>
<path d="M13.986 11.5069C14.4071 9.72361 13.3028 7.9366 11.5195 7.51551C9.73619 7.09442 7.94918 8.1987 7.52808 9.98199C7.10699 11.7653 8.21127 13.5523 9.99457 13.9734C11.7779 14.3945 13.5649 13.2902 13.986 11.5069Z" stroke="#333333" stroke-width="2.23438" stroke-miterlimit="10" stroke-linecap="round" stroke-linejoin="round"/>
<path d="M11.5195 44.4689C13.3028 44.0478 14.4071 42.2608 13.986 40.4775C13.5649 38.6942 11.7779 37.5899 9.99457 38.011C8.21127 38.4321 7.10699 40.2191 7.52808 42.0024C7.94917 43.7857 9.73619 44.89 11.5195 44.4689Z" stroke="#333333" stroke-width="2.23438" stroke-miterlimit="10" stroke-linecap="round" stroke-linejoin="round"/>
<path d="M43.5888 13.0959C44.8845 11.8002 44.8844 9.69952 43.5887 8.40388C42.2931 7.10824 40.1924 7.10828 38.8967 8.40396C37.6011 9.69964 37.6011 11.8003 38.8968 13.096C40.1925 14.3916 42.2932 14.3916 43.5888 13.0959Z" stroke="#333333" stroke-width="2.23438" stroke-miterlimit="10" stroke-linecap="round" stroke-linejoin="round"/>
</g>
<defs>
<clipPath id="clip0_2023_205">
<rect width="52" height="52" fill="white"/>
</clipPath>
</defs>
</svg>
