<svg width="409" height="217" viewBox="0 0 409 217" fill="none" xmlns="http://www.w3.org/2000/svg">
<path fill-rule="evenodd" clip-rule="evenodd" d="M16 2C8.26801 2 2 8.26802 2 16V161.79C2 169.522 8.26801 175.79 16 175.79H393C400.732 175.79 407 169.522 407 161.79V16C407 8.26801 400.732 2 393 2H16ZM366 176.004L365 211.719L322 176.004H366Z" fill="url(#paint0_linear_2072_1389)" fill-opacity="0.35"/>
<path d="M17 0C7.61116 0 0 7.61115 0 17V161C0 170.389 7.61117 178 17 178H322V176H17C8.71574 176 2 169.284 2 161V17C2 8.71572 8.71573 2 17 2H392C400.284 2 407 8.71573 407 17V161C407 169.284 400.284 176 392 176H366L364.5 210.738L322 176V178L362.54 212.982C364.484 214.66 367.5 213.279 367.5 210.711V178H392C401.389 178 409 170.389 409 161V17C409 7.61116 401.389 0 392 0H17Z" fill="white"/>
<rect width="389" height="158" rx="8" transform="matrix(-1 0 0 1 399 10)" fill="url(#paint1_linear_2072_1389)"/>
<defs>
<linearGradient id="paint0_linear_2072_1389" x1="330.05" y1="14.5831" x2="232.223" y2="263.613" gradientUnits="userSpaceOnUse">
<stop stop-color="#67CDD9"/>
<stop offset="1" stop-color="#41A4C1"/>
</linearGradient>
<linearGradient id="paint1_linear_2072_1389" x1="315.09" y1="9.48001" x2="254.145" y2="207.27" gradientUnits="userSpaceOnUse">
<stop stop-color="#5BB5BF"/>
<stop offset="1" stop-color="#3991AA"/>
</linearGradient>
</defs>
</svg>
