<svg width="409" height="217" viewBox="0 0 409 217" fill="none" xmlns="http://www.w3.org/2000/svg">
<path fill-rule="evenodd" clip-rule="evenodd" d="M393 2C400.732 2 407 8.26801 407 16V162C407 169.732 400.732 176 393 176H16C8.26801 176 2 169.732 2 162V16C2 8.26801 8.26801 2 16 2H393ZM79 176.004L80 211.719L123 176.004H79Z" fill="url(#paint0_linear_2072_1402)" fill-opacity="0.35"/>
<path d="M392 0C401.389 0 409 7.61115 409 17V161C409 170.389 401.389 178 392 178H123V176H392C400.284 176 407 169.284 407 161V17C407 8.71572 400.284 2 392 2H17C8.71573 2 2 8.71573 2 17V161C2 169.284 8.71573 176 17 176H79L80.5 210.738L123 176V178L82.4599 212.982C80.5159 214.66 77.5 213.279 77.5 210.711V178H17C7.61118 178 0 170.389 0 161V17C0 7.61116 7.61118 0 17 0H392Z" fill="white"/>
<rect width="389" height="158" rx="8" transform="matrix(-1 0 0 1 399 10)" fill="url(#paint1_linear_2072_1402)"/>
<defs>
<linearGradient id="paint0_linear_2072_1402" x1="78.95" y1="14.5813" x2="176.778" y2="263.613" gradientUnits="userSpaceOnUse">
<stop stop-color="#67CDD9"/>
<stop offset="1" stop-color="#41A4C1"/>
</linearGradient>
<linearGradient id="paint1_linear_2072_1402" x1="315.09" y1="9.48001" x2="254.145" y2="207.27" gradientUnits="userSpaceOnUse">
<stop stop-color="#5BB5BF"/>
<stop offset="1" stop-color="#3991AA"/>
</linearGradient>
</defs>
</svg>
