<svg width="52" height="52" viewBox="0 0 52 52" fill="none" xmlns="http://www.w3.org/2000/svg">
<path d="M44.4962 31.0367C44.7936 30.4382 44.9416 29.7528 44.8914 29.029C44.758 27.1022 43.1905 25.5411 41.2555 25.408C38.962 25.2503 37.0524 27.0562 37.0524 29.3062C37.0515 29.9064 37.1901 30.4988 37.4573 31.0368H30.952V37.4739C30.4019 37.2192 29.7827 37.0876 29.1299 37.115C27.0898 37.2004 25.435 38.8722 25.3766 40.9046C25.3131 43.1151 27.0937 44.9269 29.2993 44.9269C29.8702 44.9277 30.4343 44.804 30.952 44.5644V51.0014H47.6718C49.5106 51.0014 51.0013 49.5169 51.0013 47.6859V31.0367H44.4962Z" stroke="#65D3B9" stroke-width="1.94923" stroke-miterlimit="10" stroke-linecap="round" stroke-linejoin="round"/>
<path d="M43.1038 37.0859C41.7604 37.0859 40.7062 38.3492 40.7062 38.3492C40.7062 38.3492 39.7119 37.0859 38.308 37.0859C36.9425 37.0859 35.8273 38.2062 35.7545 39.5632C35.7132 40.3294 35.9616 41.0639 36.3117 41.5922C37.0108 42.6475 40.7108 45.5846 40.7108 45.5846C40.7108 45.5846 44.3967 42.657 45.1006 41.5922C45.4514 41.0615 45.6989 40.3294 45.6576 39.5632C45.5847 38.2062 44.4695 37.0859 43.1038 37.0859Z" stroke="#65D3B9" stroke-width="1.94923" stroke-miterlimit="10" stroke-linecap="round" stroke-linejoin="round"/>
<path d="M1.55469 21.5157V38.1649C1.55469 39.996 3.04538 41.4804 4.88422 41.4804H21.6039V35.3416C21.3691 35.3844 21.1308 35.4059 20.892 35.4058C18.6352 35.4058 16.8233 33.5088 16.9768 31.2288C17.1055 29.3156 18.6488 27.7571 20.5682 27.6032C20.9142 27.5751 21.2624 27.5923 21.6039 27.6544V21.5156" stroke="#333333" stroke-width="1.94923" stroke-miterlimit="10" stroke-linecap="round" stroke-linejoin="round"/>
<path d="M21.6039 1.55469H4.88422C3.04538 1.55469 1.55469 3.03913 1.55469 4.87019V21.5193H8.44725C7.90977 22.2271 7.60861 23.1228 7.66078 24.0898C7.76947 26.1029 9.443 27.7238 11.4667 27.7802C13.6854 27.842 15.5035 26.0694 15.5035 23.874C15.5048 23.024 15.2266 22.1969 14.7113 21.5193H21.6038" stroke="#333333" stroke-width="1.94923" stroke-miterlimit="10" stroke-linecap="round" stroke-linejoin="round"/>
<path d="M21.6015 1.55469V8.41818C20.8907 7.88297 19.9913 7.58307 19.0201 7.63504C16.9984 7.74331 15.3707 9.40979 15.3141 11.425C15.252 13.6344 17.0321 15.4447 19.2368 15.4447C20.0904 15.4461 20.9209 15.169 21.6015 14.6558V21.5193H28.067C27.7892 20.9256 27.6567 20.2509 27.7155 19.5404C27.8729 17.6356 29.4307 16.1057 31.3454 15.9731C33.6396 15.8142 35.5504 17.6204 35.5504 19.8711C35.5512 20.4405 35.4265 21.0032 35.1851 21.5193H41.6507V4.87019C41.6507 3.03913 40.16 1.55469 38.3212 1.55469H21.6015Z" stroke="#333333" stroke-width="1.94923" stroke-miterlimit="10" stroke-linecap="round" stroke-linejoin="round"/>
</svg>
