<svg width="56" height="56" viewBox="0 0 56 56" fill="none" xmlns="http://www.w3.org/2000/svg">
<g clip-path="url(#clip0_2023_217)">
<path d="M53.2015 4.6643H5.60151V3.731C5.60151 2.18695 5.60142 1.01562 4.07415 1.01562C2.54688 1.01562 2.54688 2.18695 2.54688 3.73089V54.1309C2.54688 54.3784 2.6452 54.6158 2.82023 54.7908C2.99526 54.9659 3.31753 55.0642 3.56506 55.0642H4.66811C4.91563 55.0642 5.15302 54.9659 5.32805 54.7908C5.50307 54.6158 5.6014 54.3784 5.6014 54.1309V40.1309H53.2014C54.7454 40.1309 56.0014 38.8749 56.0014 37.3309V7.46429C56.0015 5.92025 54.7456 4.6643 53.2015 4.6643ZM54.1348 37.3309C54.1348 37.8454 53.716 38.2642 53.2015 38.2642H5.60151V6.53089H53.2015C53.716 6.53089 54.1348 6.94969 54.1348 7.46419V37.3309Z" fill="#333333"/>
</g>
<path d="M32.8164 12.6345C32.8448 12.719 32.8462 12.8104 32.8204 12.8958C32.7946 12.9811 32.7428 13.0562 32.6724 13.1103L31.7292 13.8373L32.0741 14.9491C32.1007 15.0347 32.0999 15.1266 32.0717 15.2117C32.0435 15.2968 31.9893 15.3707 31.917 15.423C31.8447 15.4755 31.7577 15.5036 31.6686 15.5034C31.5795 15.5031 31.4927 15.4746 31.4207 15.4217L30.4946 14.7444L29.5197 15.4269C29.3733 15.5296 29.1692 15.5263 29.026 15.4194C28.9547 15.3664 28.9018 15.2922 28.8747 15.2073C28.8475 15.1224 28.8475 15.0311 28.8747 14.9462L29.2343 13.8167L28.3257 13.109C28.2557 13.0546 28.2043 12.9795 28.1789 12.8942C28.1534 12.8089 28.1551 12.7178 28.1837 12.6335C28.2123 12.5492 28.2663 12.4761 28.3382 12.4242C28.41 12.3724 28.4962 12.3445 28.5846 12.3445L29.7364 12.3446L30.0898 11.2903C30.118 11.2066 30.1713 11.1337 30.2422 11.0818C30.3132 11.0298 30.3984 11.0012 30.4861 11C30.6688 11 30.8287 11.1131 30.8893 11.2811L31.2733 12.3446H32.4151C32.5037 12.3446 32.59 12.3726 32.662 12.4246C32.734 12.4766 32.788 12.55 32.8164 12.6345ZM34.6674 16.6353C34.7285 16.6969 34.8068 16.7381 34.8918 16.7535L36.0601 16.9654L36.2398 18.1042C36.2554 18.2047 36.3062 18.2962 36.383 18.3622C36.4597 18.4282 36.5575 18.4644 36.6584 18.4641C36.7357 18.4641 36.8115 18.4428 36.8776 18.4025C36.9437 18.3621 36.9975 18.3043 37.0333 18.2353L37.5697 17.2033L38.747 17.3615C38.9266 17.3853 39.1021 17.2914 39.1827 17.1274C39.2632 16.9633 39.2309 16.7661 39.1024 16.6367L38.295 15.8232L38.77 14.7975C38.8451 14.6355 38.8112 14.4418 38.6887 14.3186L38.6821 14.3118C38.6193 14.2501 38.539 14.2096 38.4523 14.1957C38.3656 14.1819 38.2768 14.1955 38.1981 14.2346L37.2082 14.7282L36.3938 13.9077C36.3313 13.8447 36.2508 13.8031 36.1636 13.7885C36.0764 13.774 35.9869 13.7872 35.9075 13.8264C35.8282 13.8656 35.763 13.9289 35.7212 14.0073C35.6793 14.0857 35.6629 14.1754 35.6742 14.2637L35.8202 15.4116L34.7733 15.9538C34.6944 15.9945 34.6302 16.0592 34.5898 16.1386C34.5494 16.218 34.5347 16.3082 34.5478 16.3964C34.5611 16.487 34.603 16.5708 34.6674 16.6353ZM26.2266 15.9538L25.1796 15.4115L25.3255 14.2637C25.3369 14.1754 25.3205 14.0857 25.2786 14.0073C25.2368 13.9288 25.1716 13.8655 25.0922 13.8263C25.0129 13.7871 24.9234 13.7739 24.8362 13.7884C24.749 13.803 24.6685 13.8447 24.606 13.9077L23.7916 14.7282L22.8017 14.2346C22.6409 14.1542 22.4463 14.1852 22.3143 14.3153C22.253 14.3773 22.212 14.4568 22.1969 14.543C22.1818 14.6292 22.1933 14.718 22.2299 14.7974L22.7049 15.8231L21.8975 16.6365C21.8349 16.6997 21.7936 16.781 21.7793 16.869C21.7649 16.957 21.7783 17.0473 21.8175 17.1273C21.8567 17.2073 21.9198 17.2729 21.9979 17.3149C22.0761 17.3568 22.1653 17.3731 22.253 17.3614L23.4301 17.2033L23.9666 18.2352C24.0078 18.3147 24.0729 18.3792 24.1526 18.4193C24.2323 18.4593 24.3225 18.473 24.4104 18.4584C24.4983 18.444 24.5795 18.402 24.6423 18.3384C24.7051 18.2748 24.7463 18.1929 24.7601 18.1043L24.9397 16.9653L26.1082 16.7534C26.1933 16.7379 26.2717 16.6966 26.3328 16.635C26.397 16.5705 26.4388 16.4868 26.452 16.3964C26.4652 16.3082 26.4505 16.218 26.41 16.1386C26.3696 16.0592 26.3054 15.9946 26.2266 15.9538ZM32.6741 31.891L31.7655 31.1833L32.1251 30.0538C32.1523 29.9689 32.1523 29.8776 32.1252 29.7926C32.098 29.7077 32.0451 29.6336 31.9738 29.5806C31.8306 29.4737 31.6266 29.4705 31.4801 29.5731L30.5052 30.2556L29.5791 29.5783C29.5071 29.5254 29.4203 29.4967 29.3312 29.4965C29.242 29.4962 29.1551 29.5244 29.0828 29.577C29.0104 29.6293 28.9563 29.7032 28.9281 29.7883C28.8999 29.8734 28.8991 29.9653 28.9257 30.0509L29.2706 31.1627L28.3274 31.8897C28.257 31.9438 28.2052 32.0189 28.1794 32.1042C28.1536 32.1896 28.155 32.281 28.1834 32.3655C28.2118 32.45 28.2658 32.5235 28.3378 32.5754C28.4098 32.6274 28.4961 32.6554 28.5847 32.6554H29.7265L30.1105 33.7189C30.1711 33.887 30.331 34 30.5137 34C30.6014 33.9988 30.6866 33.9702 30.7575 33.9182C30.8285 33.8662 30.8817 33.7934 30.91 33.7097L31.2634 32.6554L32.4152 32.6555C32.5036 32.6555 32.5898 32.6276 32.6617 32.5758C32.7335 32.5239 32.7875 32.4508 32.8161 32.3665C32.8747 32.1934 32.8176 32.0023 32.6741 31.891ZM26.3324 28.3647C26.2713 28.3031 26.193 28.2619 26.108 28.2465L24.9397 28.0346L24.76 26.8958C24.7462 26.8072 24.705 26.7252 24.6422 26.6616C24.5794 26.5979 24.4982 26.5559 24.4103 26.5415C24.3224 26.527 24.2322 26.5407 24.1525 26.5807C24.0729 26.6208 24.0078 26.6852 23.9665 26.7647L23.4301 27.7967L22.2528 27.6385C22.165 27.6269 22.0758 27.6432 21.9977 27.6852C21.9196 27.7272 21.8565 27.7927 21.8171 27.8726C21.7779 27.9526 21.7645 28.043 21.7789 28.131C21.7933 28.219 21.8347 28.3003 21.8974 28.3633L22.7048 29.1768L22.2298 30.2025C22.1547 30.3645 22.1886 30.5582 22.3111 30.6814L22.3177 30.6882C22.3805 30.7499 22.4608 30.7904 22.5475 30.8043C22.6342 30.8181 22.723 30.8045 22.8017 30.7654L23.7916 30.2718L24.606 31.0923C24.6685 31.1553 24.749 31.197 24.8362 31.2115C24.9234 31.2261 25.0129 31.2128 25.0922 31.1736C25.1716 31.1344 25.2368 31.0711 25.2786 30.9927C25.3205 30.9143 25.3369 30.8246 25.3256 30.7363L25.1796 29.5884L26.2265 29.0462C26.3054 29.0055 26.3695 28.9408 26.41 28.8614C26.4504 28.782 26.4651 28.6918 26.4519 28.6036C26.4387 28.513 26.3968 28.4292 26.3324 28.3647ZM38.7468 27.6386L37.5697 27.7967L37.0333 26.7648C36.992 26.6853 36.9269 26.621 36.8472 26.5809C36.7675 26.5408 36.6773 26.5271 36.5894 26.5416C36.5015 26.556 36.4204 26.598 36.3576 26.6616C36.2948 26.7252 36.2536 26.8071 36.2398 26.8957L36.0601 28.0347L34.8917 28.2466C34.8066 28.2621 34.7282 28.3034 34.6671 28.365C34.6028 28.4295 34.561 28.5132 34.5478 28.6036C34.5346 28.6918 34.5493 28.7821 34.5897 28.8615C34.6301 28.9409 34.6943 29.0055 34.7732 29.0462L35.8202 29.5886L35.6743 30.7364C35.6665 30.7965 35.6716 30.8576 35.6892 30.9156C35.7067 30.9736 35.7364 31.0271 35.7761 31.0727C35.8159 31.1182 35.8648 31.1547 35.9196 31.1796C35.9745 31.2046 36.034 31.2175 36.0941 31.2175C36.2041 31.2175 36.3125 31.1743 36.3938 31.0924L37.2082 30.2719L38.1981 30.7655C38.359 30.846 38.5537 30.8149 38.6855 30.6848C38.7468 30.6228 38.7878 30.5433 38.8029 30.4571C38.818 30.3709 38.8065 30.2821 38.7699 30.2027L38.2949 29.177L39.1023 28.3635C39.165 28.3005 39.2064 28.2192 39.2208 28.1312C39.2352 28.0431 39.2219 27.9528 39.1826 27.8728C39.1434 27.7927 39.0803 27.7271 39.0021 27.6851C38.9239 27.6431 38.8347 27.6268 38.7468 27.6386ZM41.7329 22.2311L40.6723 21.8054L40.706 20.6741C40.7084 20.587 40.6844 20.5012 40.6371 20.4283C40.5898 20.3554 40.5216 20.2987 40.4415 20.2659L40.4346 20.2631C40.3527 20.2314 40.2631 20.2261 40.178 20.2479C40.093 20.2697 40.0168 20.3176 39.9599 20.385L39.2443 21.2325L38.1744 20.8034C38.0923 20.7703 38.002 20.764 37.9161 20.7854C37.8303 20.8067 37.7533 20.8546 37.6958 20.9223C37.6383 20.9899 37.6032 21.074 37.5955 21.1627C37.5878 21.2515 37.6079 21.3404 37.6529 21.417L38.2374 22.4132L37.4884 23.3284C37.446 23.3803 37.4164 23.4415 37.4019 23.5071C37.3874 23.5727 37.3885 23.6409 37.4051 23.706C37.4217 23.7711 37.4533 23.8313 37.4973 23.8818C37.5414 23.9323 37.5966 23.9716 37.6586 23.9965C37.7388 24.0289 37.8271 24.0356 37.9112 24.0155L39.0676 23.7449L39.6793 24.7196C39.7269 24.7955 39.797 24.8542 39.8797 24.8876C39.9624 24.921 40.0534 24.9273 40.1398 24.9056C40.2262 24.8839 40.3037 24.8354 40.3611 24.7668C40.4186 24.6982 40.4531 24.6131 40.4599 24.5237L40.5477 23.3622L41.6909 23.0385C41.7762 23.0144 41.8518 22.964 41.9072 22.8943C41.9625 22.8247 41.9948 22.7393 41.9994 22.6502C42.004 22.561 41.9808 22.4726 41.933 22.3974C41.8852 22.3223 41.8152 22.2642 41.7329 22.2311ZM23.0885 24.0154C23.1727 24.0354 23.2609 24.0288 23.3412 23.9964C23.4032 23.9715 23.4585 23.9322 23.5025 23.8818C23.5466 23.8313 23.5782 23.771 23.5948 23.7059C23.6114 23.6408 23.6125 23.5727 23.598 23.5071C23.5835 23.4414 23.5538 23.3802 23.5114 23.3283L22.7625 22.4132L23.347 21.417C23.392 21.3403 23.4121 21.2514 23.4044 21.1627C23.3967 21.0739 23.3616 20.9899 23.3041 20.9223C23.2466 20.8546 23.1696 20.8068 23.0838 20.7854C22.998 20.7641 22.9077 20.7704 22.8256 20.8033L21.7555 21.2325L21.0399 20.3849C20.9236 20.2471 20.7327 20.1976 20.5682 20.2619L20.5559 20.2668C20.4765 20.3 20.4089 20.3567 20.3621 20.4294C20.3153 20.5021 20.2915 20.5874 20.2939 20.6741L20.3276 21.8053L19.2669 22.2311C19.1846 22.2641 19.1147 22.3223 19.0669 22.3974C19.0191 22.4725 18.996 22.5608 19.0006 22.6499C19.0052 22.739 19.0375 22.8246 19.0928 22.8942C19.1482 22.9639 19.2238 23.0144 19.3091 23.0385L20.4524 23.3621L20.5402 24.5236C20.5482 24.6309 20.5962 24.7313 20.6745 24.8045C20.7529 24.8776 20.8558 24.9183 20.9627 24.9182C21.0342 24.9182 21.1045 24.8999 21.1671 24.8652C21.2297 24.8305 21.2826 24.7803 21.3208 24.7195L21.9325 23.7448L23.0885 24.0154Z" fill="#65D3B9"/>
<defs>
<clipPath id="clip0_2023_217">
<rect width="56" height="56" fill="white"/>
</clipPath>
</defs>
</svg>
