<svg width="56" height="56" viewBox="0 0 56 56" fill="none" xmlns="http://www.w3.org/2000/svg">
<path d="M43.4786 20.3399C44.7331 17.8644 44.9418 14.8773 43.7993 12.1111C41.7195 7.07536 35.9513 4.67906 30.9155 6.75872C28.4514 7.77634 26.6198 9.67739 25.6347 11.9433C25.6716 11.943 25.708 11.9411 25.745 11.9411M34.7044 5.97045L34.7095 1.20312M24.3398 5.49412L27.7213 8.88256M44.6056 15.883L49.3373 15.888M45.0597 5.52923L41.6702 8.91155" stroke="#65D3B9" stroke-width="2.40625" stroke-miterlimit="10" stroke-linecap="round" stroke-linejoin="round"/>
<path d="M39.7656 19.5886C38.6924 19.5876 37.6267 19.7676 36.6133 20.1208C35.2598 15.3957 30.9069 11.9375 25.7457 11.9375C20.7013 11.9375 16.4292 15.2415 14.9748 19.8029C10.6624 20.7296 7.42969 24.5624 7.42969 29.1507C7.42969 34.4317 11.7118 38.7128 16.9941 38.7128H39.7655C45.0478 38.7128 49.3299 34.4318 49.3299 29.1507C49.3299 23.8697 45.0479 19.5886 39.7656 19.5886Z" stroke="#333333" stroke-width="2.40625" stroke-miterlimit="10" stroke-linecap="round" stroke-linejoin="round"/>
<path d="M39.5691 19.6094C37.3131 19.6094 35.6862 20.408 34.0611 21.7408M32.5624 51.3967L30.625 54.7951M39.7918 38.7145L36.115 45.168" stroke="#333333" stroke-width="2.40625" stroke-miterlimit="10" stroke-linecap="round" stroke-linejoin="round"/>
<path d="M14.7514 51.4219L12.8281 54.7958" stroke="#65D3B9" stroke-width="2.40625" stroke-miterlimit="10" stroke-linecap="round" stroke-linejoin="round"/>
<path d="M21.9967 38.7188L18.3203 45.1714" stroke="#333333" stroke-width="2.40625" stroke-miterlimit="10" stroke-linecap="round" stroke-linejoin="round"/>
<path d="M45.4966 44.3438L41.6134 51.0454M27.5439 44.6184L23.8193 51.0447M10.4349 44.3982L6.66406 50.905" stroke="#65D3B9" stroke-width="2.40625" stroke-miterlimit="10" stroke-linecap="round" stroke-linejoin="round"/>
</svg>
