<svg width="46" height="46" viewBox="0 0 46 46" fill="none" xmlns="http://www.w3.org/2000/svg">
<g clip-path="url(#clip0_115_5810)">
<path d="M20.6065 20.5987L9.27344 9.26562" stroke="#333333" stroke-width="1.97656" stroke-miterlimit="10"/>
<path d="M11.5312 7.01045L7.01045 11.5312L2.8125 6.04166L6.04166 2.8125L11.5312 7.01045Z" stroke="#65D3B9" stroke-width="1.97656" stroke-miterlimit="10" stroke-linecap="round" stroke-linejoin="round"/>
<path d="M27.5781 23.2031C27.5781 23.2031 29.8751 26.3863 32.8963 25.7843L44.5291 37.4171C45.1731 38.0611 45.1731 39.1051 44.5291 39.7491L39.7569 44.5213C39.1129 45.1653 38.0688 45.1653 37.4249 44.5213L25.7921 32.8885C26.3941 29.8673 23.2109 27.5703 23.2109 27.5703" stroke="#333333" stroke-width="1.97656" stroke-miterlimit="10" stroke-linecap="round" stroke-linejoin="round"/>
<path d="M15.0207 42.6003C12.4897 45.1313 8.71998 45.6667 5.66457 44.2064L10.6161 39.2549L9.92056 36.0741L6.74045 35.3805L1.78952 40.3315C0.329919 37.2767 0.864041 33.5057 3.39575 30.9753C5.75235 28.6187 9.18438 27.9922 12.1132 29.096L29.0999 12.1093C27.9961 9.18038 28.6226 5.74844 30.9792 3.39184C33.5096 0.860135 37.2806 0.326013 40.3354 1.78561L35.3844 6.73654L36.078 9.91665L39.2588 10.6122L44.2103 5.66067C45.6706 8.71607 45.1352 12.4858 42.6042 15.0168C40.2476 17.3734 36.8163 18.0005 33.8874 16.8968L16.9007 33.8835C18.0044 36.8124 17.3773 40.2437 15.0207 42.6003Z" stroke="#65D3B9" stroke-width="1.97656" stroke-miterlimit="10" stroke-linecap="round" stroke-linejoin="round"/>
<path d="M25.793 32.8854L32.8971 25.7812" stroke="#333333" stroke-width="1.97656" stroke-miterlimit="10" stroke-linecap="round" stroke-linejoin="round"/>
</g>
<defs>
<clipPath id="clip0_115_5810">
<rect width="46" height="46" fill="white"/>
</clipPath>
</defs>
</svg>
