<svg width="56" height="56" viewBox="0 0 56 56" fill="none" xmlns="http://www.w3.org/2000/svg">
<g clip-path="url(#clip0_2023_218)">
<path d="M53.2015 4.6643H5.60151V3.731C5.60151 2.18695 5.60142 1.01562 4.07415 1.01562C2.54688 1.01562 2.54688 2.18695 2.54688 3.73089V54.1309C2.54688 54.3784 2.6452 54.6158 2.82023 54.7908C2.99526 54.9659 3.31753 55.0642 3.56506 55.0642H4.66811C4.91563 55.0642 5.15302 54.9659 5.32805 54.7908C5.50307 54.6158 5.6014 54.3784 5.6014 54.1309V40.1309H53.2014C54.7454 40.1309 56.0014 38.8749 56.0014 37.3309V7.46429C56.0015 5.92025 54.7456 4.6643 53.2015 4.6643ZM54.1348 37.3309C54.1348 37.8454 53.716 38.2642 53.2015 38.2642H5.60151V6.53089H53.2015C53.716 6.53089 54.1348 6.94969 54.1348 7.46419V37.3309Z" fill="#333333"/>
</g>
<path d="M40.154 17.7692H34.2309V11.8461C34.2309 11.6217 34.1417 11.4065 33.983 11.2478C33.8243 11.0891 33.6091 11 33.3847 11H26.6154C26.391 11 26.1758 11.0891 26.0171 11.2478C25.8584 11.4065 25.7692 11.6217 25.7692 11.8461V17.7692H19.8461C19.6217 17.7692 19.4065 17.8583 19.2478 18.017C19.0891 18.1757 19 18.3909 19 18.6153V25.3846C19 25.609 19.0891 25.8242 19.2478 25.9829C19.4065 26.1416 19.6217 26.2307 19.8461 26.2307H25.7691V32.1539C25.7691 32.3783 25.8583 32.5935 26.017 32.7522C26.1757 32.9109 26.3909 33 26.6153 33H33.3846C33.609 33 33.8242 32.9109 33.9829 32.7522C34.1416 32.5935 34.2308 32.3783 34.2308 32.1539V26.2308H40.1539C40.265 26.2308 40.375 26.2089 40.4777 26.1664C40.5803 26.1239 40.6736 26.0616 40.7522 25.983C40.8307 25.9044 40.8931 25.8111 40.9356 25.7085C40.9781 25.6058 41 25.4958 41 25.3847V18.6154C41 18.5043 40.9781 18.3943 40.9356 18.2916C40.8931 18.1889 40.8308 18.0957 40.7522 18.0171C40.6737 17.9385 40.5804 17.8762 40.4778 17.8336C40.3751 17.7911 40.2651 17.7692 40.154 17.7692ZM39.3077 24.5385H33.3846C33.1602 24.5385 32.945 24.6276 32.7863 24.7863C32.6276 24.945 32.5385 25.1602 32.5385 25.3846V31.3077H27.4615V25.3846C27.4615 25.1602 27.3724 24.945 27.2137 24.7863C27.055 24.6276 26.8398 24.5385 26.6154 24.5385H20.6922V19.4615H26.6153C26.8397 19.4615 27.0549 19.3724 27.2136 19.2137C27.3723 19.055 27.4614 18.8398 27.4614 18.6154V12.6923H32.5384V18.6154C32.5384 18.7265 32.5603 18.8365 32.6028 18.9392C32.6453 19.0419 32.7076 19.1351 32.7862 19.2137C32.8648 19.2923 32.9581 19.3546 33.0607 19.3971C33.1634 19.4396 33.2734 19.4615 33.3845 19.4615H39.3076V24.5385H39.3077Z" fill="#65D3B9"/>
<defs>
<clipPath id="clip0_2023_218">
<rect width="56" height="56" fill="white"/>
</clipPath>
</defs>
</svg>
