<svg width="56" height="56" viewBox="0 0 56 56" fill="none" xmlns="http://www.w3.org/2000/svg">
<path d="M33.893 33.0402C34.6613 32.7273 35.4032 32.3534 36.1117 31.922L37.6604 33.4706L42.9003 28.2307L41.3517 26.6821C42.1835 25.316 42.7993 23.8296 43.1772 22.2754H45.367V14.8652H43.1772C42.7993 13.3111 42.1835 11.8247 41.3517 10.4586L42.9003 8.90993L37.6604 3.66999L36.1116 5.21874C34.7455 4.38689 33.2591 3.7711 31.705 3.39317V1.20337H24.2947V3.39317C22.7406 3.77113 21.2542 4.38692 19.8881 5.21874L18.3394 3.66999L13.0994 8.90993L14.6481 10.4586C13.8162 11.8247 13.2004 13.3111 12.8225 14.8652H10.6328V22.2754H12.8226C13.2005 23.8296 13.8163 25.316 14.6482 26.6821L13.0995 28.2307L18.3395 33.4706L19.8881 31.922C20.908 32.543 21.9962 33.0444 23.131 33.4161" stroke="#65D3B9" stroke-width="2.40625" stroke-miterlimit="10" stroke-linejoin="round"/>
<path d="M27.9977 26.355C32.2982 26.355 35.7844 22.8687 35.7844 18.5682C35.7844 14.2677 32.2982 10.7815 27.9977 10.7815C23.6972 10.7815 20.2109 14.2677 20.2109 18.5682C20.2109 22.8687 23.6972 26.355 27.9977 26.355Z" stroke="#65D3B9" stroke-width="2.40625" stroke-miterlimit="10" stroke-linecap="round" stroke-linejoin="round"/>
<path d="M30.5015 43.2893V46.4657C34.4073 46.4657 37.5736 49.632 37.5736 53.5377V54.7977H18.4258V53.5377C18.4258 49.632 21.5921 46.4657 25.4979 46.4657V43.2893" stroke="#333333" stroke-width="2.40625" stroke-miterlimit="10" stroke-linejoin="round"/>
<path d="M32.8015 35.9377V39.009C32.8015 41.6466 30.7034 43.8451 28.066 43.8794C25.3864 43.9141 23.2031 41.7522 23.2031 39.0805V35.9377M30.5041 46.4725L28.0023 48.9744L25.5004 46.4725" stroke="#333333" stroke-width="2.40625" stroke-miterlimit="10" stroke-linejoin="round"/>
<path d="M26.4844 30.5784C24.6721 30.5784 23.2031 32.0474 23.2031 33.8596V35.9367H31.7078C32.916 35.9367 33.8953 34.9573 33.8953 33.7492V30.5784H26.4844Z" stroke="#333333" stroke-width="2.40625" stroke-miterlimit="10" stroke-linecap="round" stroke-linejoin="round"/>
</svg>
