<svg width="52" height="52" viewBox="0 0 52 52" fill="none" xmlns="http://www.w3.org/2000/svg">
<g clip-path="url(#clip0_115_5843)">
<path d="M26.7817 15.429L28.6535 18.346C28.7799 18.5429 28.9756 18.6851 29.2019 18.7445L32.5545 19.6233C33.2119 19.7957 33.4702 20.5906 33.0397 21.1164L30.8439 23.798C30.6956 23.979 30.6208 24.2091 30.6344 24.4427L30.8346 27.9027C30.8739 28.5811 30.1976 29.0725 29.5646 28.8255L26.3357 27.5658C26.1177 27.4808 25.8758 27.4808 25.6578 27.5658L22.4289 28.8255C21.7958 29.0725 21.1196 28.5811 21.1589 27.9027L21.3592 24.4427C21.3727 24.2091 21.2979 23.979 21.1496 23.798L18.9539 21.1164C18.5233 20.5906 18.7816 19.7957 19.439 19.6233L22.7916 18.7445C23.0179 18.6852 23.2137 18.5429 23.34 18.346L25.2118 15.429C25.5788 14.857 26.4146 14.857 26.7817 15.429Z" stroke="#65D3B9" stroke-width="2.23438" stroke-miterlimit="10" stroke-linecap="round" stroke-linejoin="round"/>
<path d="M46.8241 21.9433C46.8241 23.7447 45.1998 25.3086 44.7557 26.97C44.2962 28.6891 44.9075 30.8532 44.0366 32.3582C43.1532 33.885 40.9651 34.4324 39.7261 35.6715C38.487 36.9106 37.9396 39.0986 36.4128 39.982C34.9078 40.8528 32.7437 40.2415 31.0247 40.701C29.3632 41.145 27.7994 42.7694 25.998 42.7694C24.1966 42.7694 22.6327 41.1451 20.9712 40.701C19.2522 40.2415 17.0881 40.8527 15.583 39.9819C14.0563 39.0986 13.5088 36.9105 12.2698 35.6714C11.0307 34.4323 8.84265 33.8849 7.95926 32.3581C7.08846 30.8531 7.69977 28.689 7.2403 26.97C6.79627 25.3086 5.17188 23.7447 5.17188 21.9433C5.17188 20.1419 6.79616 18.578 7.2403 16.9166C7.69977 15.1975 7.08856 13.0334 7.95936 11.5284C8.84265 10.0016 11.0308 9.45415 12.2699 8.21509C13.5089 6.97602 14.0564 4.78796 15.5831 3.90457C17.0882 3.03377 19.2523 3.64508 20.9712 3.18561C22.6327 2.74148 24.1967 1.11719 25.9981 1.11719C27.7995 1.11719 29.3633 2.74148 31.0248 3.18561C32.7439 3.64508 34.9079 3.03387 36.413 3.90467C37.9398 4.78796 38.4872 6.97612 39.7263 8.21519C40.9653 9.45425 43.1534 10.0017 44.0368 11.5285C44.9076 13.0335 44.2963 15.1976 44.7558 16.9166C45.1998 18.5779 46.8241 20.1418 46.8241 21.9433Z" stroke="#333333" stroke-width="2.23438" stroke-miterlimit="10" stroke-linecap="round" stroke-linejoin="round"/>
<path d="M26.0005 35.3291C33.3962 35.3291 39.3916 29.3337 39.3916 21.938C39.3916 14.5423 33.3962 8.54688 26.0005 8.54688C18.6048 8.54688 12.6094 14.5423 12.6094 21.938C12.6094 29.3337 18.6048 35.3291 26.0005 35.3291Z" stroke="#333333" stroke-width="2.23438" stroke-miterlimit="10" stroke-linecap="round" stroke-linejoin="round"/>
<path d="M35.8334 40.5625V48.3749C35.8334 50.1616 34.0184 51.3755 32.3671 50.6931L26.9566 48.4574C26.3432 48.2039 25.6543 48.2039 25.0408 48.4574L19.6303 50.6931C17.979 51.3753 16.1641 50.1616 16.1641 48.3749V40.6407" stroke="#333333" stroke-width="2.23438" stroke-miterlimit="10" stroke-linecap="round" stroke-linejoin="round"/>
</g>
<defs>
<clipPath id="clip0_115_5843">
<rect width="52" height="52" fill="white"/>
</clipPath>
</defs>
</svg>
