<svg width="76" height="76" viewBox="0 0 76 76" fill="none" xmlns="http://www.w3.org/2000/svg">
<path d="M5.21484 17.6656C5.21484 15.6411 6.85599 14 8.88044 14H67.1147C69.1391 14 70.7803 15.6411 70.7803 17.6656V58.3338C70.7803 60.3582 69.1391 61.9993 67.1147 61.9993H8.88043C6.85598 61.9993 5.21484 60.3582 5.21484 58.3338V17.6656Z" stroke="black" stroke-width="4.08084" stroke-miterlimit="10"/>
<path d="M28.3917 53.5569C36.9851 53.5569 43.9514 46.5906 43.9514 37.9972C43.9514 29.4038 36.9851 22.4375 28.3917 22.4375C19.7983 22.4375 12.832 29.4038 12.832 37.9972C12.832 46.5906 19.7983 53.5569 28.3917 53.5569Z" stroke="#65D3B9" stroke-width="4.08084" stroke-miterlimit="10"/>
<path d="M43.9087 39.2799C43.9087 43.577 40.4252 47.0606 36.1281 47.0606C32.3113 47.0606 29.1364 44.3122 28.4742 40.6867M12.8555 37.3837C12.8555 33.2224 16.2288 29.8491 20.3901 29.8491C23.162 29.8491 25.5845 31.3461 26.893 33.5757M29.2071 22.4688C33.5042 22.4688 36.9878 25.9523 36.9878 30.2494C36.9878 33.2398 35.3007 35.8362 32.8265 37.1388M27.3109 53.522C23.1497 53.522 19.7763 50.1487 19.7763 45.9874C19.7763 43.2155 21.2733 40.7929 23.5029 39.4845M50.4177 22.4688H64.0304M50.4177 53.522H64.0304M50.4177 45.7586H64.0304M50.4177 37.9954H64.0304M50.4177 30.2321H64.0304" stroke="#65D3B9" stroke-width="4.08084" stroke-miterlimit="10"/>
<path d="M28.39 42.5144C30.8836 42.5144 32.9051 40.493 32.9051 37.9994C32.9051 35.5058 30.8836 33.4844 28.39 33.4844C25.8965 33.4844 23.875 35.5058 23.875 37.9994C23.875 40.493 25.8965 42.5144 28.39 42.5144Z" stroke="black" stroke-width="4.08084" stroke-miterlimit="10"/>
</svg>
