<svg width="69" height="68" viewBox="0 0 69 68" fill="none" xmlns="http://www.w3.org/2000/svg">
<mask id="mask0_2019_121" style="mask-type:luminance" maskUnits="userSpaceOnUse" x="0" y="0" width="69" height="68">
<path d="M0.25 0.000221252H68.2498V68H0.25V0.000221252Z" fill="white"/>
</mask>
<g mask="url(#mask0_2019_121)">
<path d="M14.6603 57.5743H18.32L16.9813 64.0156H14.6603V57.5743ZM14.6603 44.6251H53.8398V53.5899H14.6603V44.6251ZM28.5982 57.5743H39.902L37.2351 64.0156H31.2649L28.5982 57.5743ZM50.1802 57.5743H53.8398V64.0156H51.5188L50.1802 57.5743ZM53.8398 18.7273V27.3595H34.25H14.6603V18.7273C14.6603 17.7714 15.2337 16.9243 16.1213 16.5692L26.0009 12.6174H42.4991L52.3787 16.5692C53.2663 16.9243 53.8398 17.7714 53.8398 18.7273ZM40.8906 8.63301H27.6094V6.3088C27.6094 5.02729 28.6521 3.98458 29.9336 3.98458H38.5664C39.8479 3.98458 40.8906 5.02729 40.8906 6.3088V8.63301ZM14.6603 27.3595H53.8398V35.9923H14.6603V27.3595ZM14.6603 35.9923H53.8398V44.6251H14.6603V35.9923ZM10.6759 18.7273V68H19.6439L22.6322 57.5743H24.2859L28.6023 68H39.8977L44.2141 57.5743H45.8679L48.8562 68H57.8242V18.7273C57.841 16.0196 56.0171 13.5687 53.5078 12.7296V9.10568H49.5234V11.1358L44.875 9.27648V6.3088C44.875 2.83031 42.0449 0.000221252 38.5664 0.000221252H29.9336C26.4552 0.000221252 23.6251 2.83031 23.6251 6.3088V9.27648L18.9766 11.1358V9.10568H14.9923V12.7296C12.4829 13.5687 10.6592 16.0196 10.6759 18.7273Z" fill="#333333"/>
</g>
<path d="M30.2647 27.7591C32.0627 24.9342 33.8371 22.6441 34 22.435C34.1558 22.6347 35.9336 24.9283 37.7352 27.759C39.0546 29.8322 40.0075 31.5893 40.6268 33.0622C41.2518 34.5487 41.5 35.6597 41.5 36.4652C41.5 40.9771 38.0539 44.5 34 44.5C29.9462 44.5 26.5 40.9771 26.5 36.4652C26.5 35.6596 26.7482 34.5486 27.3732 33.0622C27.9925 31.5893 28.9453 29.8322 30.2647 27.7591Z" stroke="#65D3B9" stroke-width="3"/>
</svg>
