<svg width="77" height="76" viewBox="0 0 77 76" fill="none" xmlns="http://www.w3.org/2000/svg">
<path d="M62.1954 21.362C59.72 17.6908 57.2828 14.7409 57.1801 14.6173L55.646 12.7656L54.1119 14.6173C54.0093 14.7411 51.5719 17.691 49.0966 21.362C45.572 26.5896 43.8587 30.4358 43.8587 33.1206C43.8587 39.6202 49.1464 44.9079 55.646 44.9079C62.1456 44.9079 67.4332 39.6202 67.4332 33.1206C67.4332 30.4359 65.7199 26.5897 62.1954 21.362ZM55.646 40.9235C51.3434 40.9235 47.8431 37.4232 47.8431 33.1206C47.8431 30.1613 52.1482 23.6122 55.646 19.0814C59.1439 23.6123 63.4488 30.1613 63.4488 33.1206C63.4488 37.4232 59.9486 40.9235 55.646 40.9235ZM32.5349 51.6286V14.8277H28.5505V51.6286C25.8265 52.4787 23.8438 55.0247 23.8438 58.025C23.8438 61.7187 26.8489 64.7238 30.5427 64.7238C34.2365 64.7238 37.2415 61.7186 37.2415 58.025C37.2416 55.0247 35.2589 52.4788 32.5349 51.6286ZM30.5427 60.7394C29.0458 60.7394 27.8281 59.5216 27.8281 58.025C27.8281 56.5283 29.0459 55.3105 30.5427 55.3105C32.0395 55.3105 33.2571 56.5283 33.2571 58.025C33.2571 59.5216 32.0395 60.7394 30.5427 60.7394Z" fill="#65D3B9"/>
<path d="M39.9708 46.3933V14.4297C39.9708 9.23021 35.7405 5 30.5411 5C25.3416 5 21.1114 9.23021 21.1114 14.4297V46.3931C17.5993 49.2432 15.5444 53.5443 15.5666 58.0998C15.606 66.2023 22.2281 72.8859 30.3283 72.9987C30.4002 72.9996 30.4717 73.0001 30.5435 73.0001C34.5049 73.0001 38.2305 71.4737 41.0552 68.688C43.9315 65.8516 45.5155 62.0649 45.5155 58.0255C45.5157 53.4998 43.4612 49.2264 39.9708 46.3933ZM38.2577 65.851C36.1472 67.9323 33.3495 69.0491 30.3839 69.0146C24.4395 68.9318 19.5799 64.0267 19.5511 58.0803C19.5336 54.4756 21.2888 51.0871 24.2464 49.0161L25.0959 48.4212V14.4297C25.0959 11.4272 27.5387 8.98438 30.5412 8.98438C33.5437 8.98438 35.9865 11.4272 35.9865 14.4297V48.4213L36.836 49.0162C39.7761 51.0749 41.5314 54.4429 41.5314 58.0255C41.5313 60.9899 40.3687 63.7691 38.2577 65.851Z" fill="black"/>
</svg>
