<svg width="77" height="76" viewBox="0 0 77 76" fill="none" xmlns="http://www.w3.org/2000/svg">
<path d="M61.9198 19.0054H15.5854M65.6108 26.6416H11.8945M53.9526 34.3418L48.899 12.5781M28.6063 12.5781L23.5527 34.3418M38.7526 12.6418V34.2781" stroke="#65D3B9" stroke-width="2.8" stroke-miterlimit="2.6131" stroke-linecap="round" stroke-linejoin="round"/>
<path d="M7.57031 34.9091L18.3885 12H59.1158L69.9339 34.9091M7.57031 34.9091H69.9339M7.57031 34.9091V40.6364H69.9339V34.9091M10.6249 58.8364V52.9182L15.8159 47.7271V41.4M26.3525 52.3455V48.5439L29.6869 45.2095V41.1455M38.7521 61.2545V41.2727M66.8794 58.8364V52.9182L61.6883 47.7271V41.4M51.1518 52.3455V48.5439L47.8174 45.2095V41.1455" stroke="black" stroke-width="2.8" stroke-miterlimit="2.6131" stroke-linecap="round" stroke-linejoin="round"/>
<path fill-rule="evenodd" clip-rule="evenodd" d="M38.7521 68.0026C40.4345 68.0026 41.8067 66.6304 41.8067 64.948C41.8067 63.2656 40.4345 61.8935 38.7521 61.8935C37.0697 61.8935 35.6976 63.2656 35.6976 64.948C35.6976 66.6304 37.0697 68.0026 38.7521 68.0026ZM10.6249 65.5844C12.3073 65.5844 13.6794 64.2122 13.6794 62.5298C13.6794 60.8474 12.3073 59.4753 10.6249 59.4753C8.94257 59.4753 7.57031 60.8474 7.57031 62.5298C7.57031 64.2122 8.94257 65.5844 10.6249 65.5844ZM26.3525 59.0935C28.0349 59.0935 29.407 57.7213 29.407 56.0389C29.407 54.3565 28.0349 52.9844 26.3525 52.9844C24.6702 52.9844 23.2979 54.3565 23.2979 56.0389C23.2979 57.7213 24.67 59.0935 26.3525 59.0935ZM66.8794 65.5844C68.5618 65.5844 69.9339 64.2122 69.9339 62.5298C69.9339 60.8474 68.5618 59.4753 66.8794 59.4753C65.197 59.4753 63.8249 60.8474 63.8249 62.5298C63.8249 64.2122 65.197 65.5844 66.8794 65.5844ZM51.1518 59.0935C52.8342 59.0935 54.2063 57.7213 54.2063 56.0389C54.2063 54.3565 52.8342 52.9844 51.1518 52.9844C49.4694 52.9844 48.0973 54.3565 48.0973 56.0389C48.0973 57.7213 49.4694 59.0935 51.1518 59.0935Z" stroke="#65D3B9" stroke-width="2.8" stroke-miterlimit="2.6131" stroke-linecap="round" stroke-linejoin="round"/>
</svg>
