<svg width="76" height="76" viewBox="0 0 76 76" fill="none" xmlns="http://www.w3.org/2000/svg">
<path d="M54.4385 18.8575V11.2969H62.6538V25.7531M27.1914 49.3966V54.7964L37.9909 65.596V70.9957M37.9909 70.9957L48.7905 60.1962V49.3966M37.9909 70.9957V38.597" stroke="#65D3B9" stroke-width="3.26562" stroke-miterlimit="10" stroke-linecap="round" stroke-linejoin="round"/>
<path d="M62.6537 70.8603V37.8344M62.6537 37.8344L38.0075 16.7079L13.3611 37.8344M62.6537 37.8344L70.9895 32.8258L38.0075 5L4.99219 32.8258L13.3611 37.8344M13.3611 37.8344V70.8603M4.99515 70.9972H71.0061" stroke="black" stroke-width="3.26562" stroke-miterlimit="10" stroke-linecap="round" stroke-linejoin="round"/>
<path d="M30.7234 46.6143C31.1785 44.6627 29.9653 42.7117 28.0137 42.2567C26.0621 41.8016 24.1111 43.0147 23.656 44.9663C23.2009 46.9179 24.4141 48.8689 26.3657 49.324C28.3173 49.7791 30.2683 48.5659 30.7234 46.6143Z" stroke="black" stroke-width="3.26562" stroke-miterlimit="10" stroke-linecap="round" stroke-linejoin="round"/>
<path d="M51.3535 48.3625C52.7704 46.9454 52.7704 44.648 51.3534 43.231C49.9363 41.814 47.6389 41.8141 46.2219 43.2311C44.8049 44.6481 44.805 46.9456 46.222 48.3625C47.639 49.7795 49.9365 49.7795 51.3535 48.3625Z" stroke="black" stroke-width="3.26562" stroke-miterlimit="10" stroke-linecap="round" stroke-linejoin="round"/>
<path d="M41.4979 35.9354C42.0145 33.9992 40.8637 32.0108 38.9275 31.4941C36.9913 30.9775 35.0029 32.1283 34.4862 34.0645C33.9696 36.0007 35.1204 37.9891 37.0566 38.5058C38.9928 39.0224 40.9812 37.8716 41.4979 35.9354Z" stroke="black" stroke-width="3.26562" stroke-miterlimit="10" stroke-linecap="round" stroke-linejoin="round"/>
</svg>
