<svg width="77" height="76" viewBox="0 0 77 76" fill="none" xmlns="http://www.w3.org/2000/svg">
<path d="M34.375 10.875H26.625V16.6874L32.4374 22.5H38.25V30.25M67.3126 34.6447V26.375H61.5L53.75 34.125V38H46M42.125 65.125H49.875V59.3126L44.0626 53.5H38.25V45.75M11.125 41.875V49.625H16.9374L22.75 43.8126V38H30.5M61.5 10.875H55.6874L49.875 16.6874V26.375L46 30.25M15 65.125H20.8126L26.625 59.3126V49.625L30.5 45.75M11.125 14.75V22.5L15 26.375H20.8126L24.6874 30.25H30.5M65.375 61.25V53.5L61.5 49.625H55.6874L51.8126 45.75H46" stroke="#65D3B9" stroke-width="2.78367" stroke-miterlimit="10" stroke-linecap="round" stroke-linejoin="round"/>
<path d="M30.5 30.25H46V45.75H30.5V30.25Z" stroke="black" stroke-width="2.78367" stroke-miterlimit="10" stroke-linecap="round" stroke-linejoin="round"/>
<path d="M38.25 14.75C40.3901 14.75 42.125 13.0151 42.125 10.875C42.125 8.7349 40.3901 7 38.25 7C36.1099 7 34.375 8.7349 34.375 10.875C34.375 13.0151 36.1099 14.75 38.25 14.75Z" stroke="black" stroke-width="2.78367" stroke-miterlimit="10" stroke-linecap="round" stroke-linejoin="round"/>
<path d="M65.375 14.75C67.5151 14.75 69.25 13.0151 69.25 10.875C69.25 8.7349 67.5151 7 65.375 7C63.2349 7 61.5 8.7349 61.5 10.875C61.5 13.0151 63.2349 14.75 65.375 14.75Z" stroke="black" stroke-width="2.78367" stroke-miterlimit="10" stroke-linecap="round" stroke-linejoin="round"/>
<path d="M65.375 41.875C67.5151 41.875 69.25 40.1401 69.25 38C69.25 35.8599 67.5151 34.125 65.375 34.125C63.2349 34.125 61.5 35.8599 61.5 38C61.5 40.1401 63.2349 41.875 65.375 41.875Z" stroke="black" stroke-width="2.78367" stroke-miterlimit="10" stroke-linecap="round" stroke-linejoin="round"/>
<path d="M65.375 69C67.5151 69 69.25 67.2651 69.25 65.125C69.25 62.9849 67.5151 61.25 65.375 61.25C63.2349 61.25 61.5 62.9849 61.5 65.125C61.5 67.2651 63.2349 69 65.375 69Z" stroke="black" stroke-width="2.78367" stroke-miterlimit="10" stroke-linecap="round" stroke-linejoin="round"/>
<path d="M38.25 69C40.3901 69 42.125 67.2651 42.125 65.125C42.125 62.9849 40.3901 61.25 38.25 61.25C36.1099 61.25 34.375 62.9849 34.375 65.125C34.375 67.2651 36.1099 69 38.25 69Z" stroke="black" stroke-width="2.78367" stroke-miterlimit="10" stroke-linecap="round" stroke-linejoin="round"/>
<path d="M11.125 69C13.2651 69 15 67.2651 15 65.125C15 62.9849 13.2651 61.25 11.125 61.25C8.9849 61.25 7.25 62.9849 7.25 65.125C7.25 67.2651 8.9849 69 11.125 69Z" stroke="black" stroke-width="2.78367" stroke-miterlimit="10" stroke-linecap="round" stroke-linejoin="round"/>
<path d="M11.125 41.875C13.2651 41.875 15 40.1401 15 38C15 35.8599 13.2651 34.125 11.125 34.125C8.9849 34.125 7.25 35.8599 7.25 38C7.25 40.1401 8.9849 41.875 11.125 41.875Z" stroke="black" stroke-width="2.78367" stroke-miterlimit="10" stroke-linecap="round" stroke-linejoin="round"/>
<path d="M11.125 14.75C13.2651 14.75 15 13.0151 15 10.875C15 8.7349 13.2651 7 11.125 7C8.9849 7 7.25 8.7349 7.25 10.875C7.25 13.0151 8.9849 14.75 11.125 14.75Z" stroke="black" stroke-width="2.78367" stroke-miterlimit="10" stroke-linecap="round" stroke-linejoin="round"/>
<path d="M38.25 36.0625V39.9374" stroke="black" stroke-width="2.78367" stroke-miterlimit="10" stroke-linecap="round" stroke-linejoin="round"/>
</svg>
