<svg width="77" height="76" viewBox="0 0 77 76" fill="none" xmlns="http://www.w3.org/2000/svg">
<g clip-path="url(#clip0_115_6743)">
<path d="M61.0851 27.0312H70.7109M61.0851 48.9483H70.7109M15.9149 27.0312H6.28906M15.9149 48.9483H6.28906" stroke="black" stroke-width="3.26562" stroke-miterlimit="10" stroke-linecap="round" stroke-linejoin="round"/>
<path d="M19.8358 58.5349L16.379 63.8659H10.5938M19.8358 17.456L16.379 12.125H10.5938M57.1642 58.5349L60.621 63.8659H66.4062M57.1642 17.456L60.621 12.125H66.4062" stroke="black" stroke-width="3.26562" stroke-miterlimit="10" stroke-linejoin="round"/>
<path d="M38.4983 14.4073C39.8375 12.2454 42.23 10.8047 44.9601 10.8047C48.6415 10.8047 51.7107 13.4234 52.4079 16.8997C54.7455 16.5106 57.2298 17.2156 59.0333 19.0191C61.3875 21.3733 61.8715 24.8874 60.4896 27.7209C64.3837 29.5051 67.0903 33.4341 67.0903 37.9978C67.0903 42.5616 64.3837 46.4905 60.4896 48.2748C61.8715 51.1083 61.3875 54.6224 59.0333 56.9766C57.2299 58.7801 54.7455 59.4851 52.4079 59.096C51.7107 62.5721 48.6415 65.191 44.9601 65.191C42.2301 65.191 39.8375 63.7503 38.4983 61.5884M38.4983 14.4073C37.1591 12.2454 34.7664 10.8047 32.0365 10.8047C28.3551 10.8047 25.2859 13.4236 24.5886 16.8997C22.2511 16.5106 19.7667 17.2156 17.9633 19.0191C15.6091 21.3733 15.125 24.8874 16.507 27.7209C12.6129 29.5051 9.90625 33.4341 9.90625 37.9978C9.90625 42.5616 12.6129 46.4905 16.507 48.2748C15.125 51.1083 15.6091 54.6224 17.9633 56.9766C19.7668 58.7801 22.2511 59.4851 24.5886 59.096C25.2859 62.5723 28.3551 65.191 32.0365 65.191C34.7666 65.191 37.1591 63.7503 38.4983 61.5884M38.4983 14.4073V16.7162M38.4983 61.5884V59.2795" stroke="black" stroke-width="3.26562" stroke-miterlimit="10" stroke-linecap="round" stroke-linejoin="round"/>
<path d="M35.2344 34.7344H41.7656V41.2656H35.2344V34.7344Z" stroke="#65D3B9" stroke-width="3.26562" stroke-miterlimit="10" stroke-linecap="round" stroke-linejoin="round"/>
<path d="M6.28906 68.0234C8.5845 68.0234 10.4453 66.1626 10.4453 63.8672C10.4453 61.5718 8.5845 59.7109 6.28906 59.7109C3.99363 59.7109 2.13281 61.5718 2.13281 63.8672C2.13281 66.1626 3.99363 68.0234 6.28906 68.0234Z" stroke="#65D3B9" stroke-width="3.26562" stroke-miterlimit="10" stroke-linecap="round" stroke-linejoin="round"/>
<path d="M6.28906 16.2812C8.5845 16.2812 10.4453 14.4204 10.4453 12.125C10.4453 9.82957 8.5845 7.96875 6.28906 7.96875C3.99363 7.96875 2.13281 9.82957 2.13281 12.125C2.13281 14.4204 3.99363 16.2812 6.28906 16.2812Z" stroke="#65D3B9" stroke-width="3.26562" stroke-miterlimit="10" stroke-linecap="round" stroke-linejoin="round"/>
<path d="M70.7109 68.0234C73.0064 68.0234 74.8672 66.1626 74.8672 63.8672C74.8672 61.5718 73.0064 59.7109 70.7109 59.7109C68.4155 59.7109 66.5547 61.5718 66.5547 63.8672C66.5547 66.1626 68.4155 68.0234 70.7109 68.0234Z" stroke="#65D3B9" stroke-width="3.26562" stroke-miterlimit="10" stroke-linecap="round" stroke-linejoin="round"/>
<path d="M70.7109 16.2812C73.0064 16.2812 74.8672 14.4204 74.8672 12.125C74.8672 9.82957 73.0064 7.96875 70.7109 7.96875C68.4155 7.96875 66.5547 9.82957 66.5547 12.125C66.5547 14.4204 68.4155 16.2812 70.7109 16.2812Z" stroke="#65D3B9" stroke-width="3.26562" stroke-miterlimit="10" stroke-linecap="round" stroke-linejoin="round"/>
<path d="M48.2977 34.5829H53.9431M48.2977 41.411H53.9431M28.704 34.5829H23.0586M28.704 41.411H23.0586M41.9149 47.7938V53.4392M35.0868 47.7938V53.4392M41.9149 28.2001V22.5547M35.0868 28.2001V22.5547M31.6727 47.7938H45.329C46.9686 47.7938 48.2977 46.4647 48.2977 44.8251V31.1688C48.2977 29.5292 46.9686 28.2001 45.329 28.2001H31.6727C30.0331 28.2001 28.704 29.5292 28.704 31.1688V44.8251C28.704 46.4647 30.0331 47.7938 31.6727 47.7938Z" stroke="#65D3B9" stroke-width="3.26562" stroke-miterlimit="10" stroke-linecap="round" stroke-linejoin="round"/>
</g>
<defs>
<clipPath id="clip0_115_6743">
<rect width="76" height="76" fill="white" transform="translate(0.5)"/>
</clipPath>
</defs>
</svg>
