<svg width="57" height="56" viewBox="0 0 57 56" fill="none" xmlns="http://www.w3.org/2000/svg">
<path d="M44 20.5625H40.0585V11.5686C40.0585 5.18962 34.7593 0 28.246 0C21.7326 0 16.4335 5.18962 16.4335 11.5686V20.5625H12.5C8.88144 20.5625 5.9375 23.5064 5.9375 27.125V49.4375C5.9375 53.0561 8.88144 56 12.5 56H44C47.6186 56 50.5625 53.0561 50.5625 49.4375V27.125C50.5625 23.5064 47.6186 20.5625 44 20.5625ZM20.8085 11.5686C20.8085 7.602 24.1449 4.375 28.246 4.375C32.347 4.375 35.6835 7.602 35.6835 11.5686V20.5625H20.8085V11.5686ZM46.1875 49.4375C46.1875 50.6437 45.2062 51.625 44 51.625H12.5C11.2938 51.625 10.3125 50.6437 10.3125 49.4375V27.125C10.3125 25.9188 11.2938 24.9375 12.5 24.9375H44C45.2062 24.9375 46.1875 25.9188 46.1875 27.125V49.4375Z" fill="black" fill-opacity="0.1"/>
<path d="M28.25 31.2812C26.0149 31.2812 24.2031 33.093 24.2031 35.3281C24.2031 36.7552 24.9425 38.0089 26.0585 38.7295V43.5312C26.0585 44.7393 27.0378 45.7188 28.246 45.7188C29.454 45.7188 30.4335 44.7393 30.4335 43.5312V38.7346C31.5539 38.0149 32.2969 36.7587 32.2969 35.3281C32.2969 33.093 30.4851 31.2812 28.25 31.2812Z" fill="black" fill-opacity="0.1"/>
</svg>
