<svg width="238" height="121" viewBox="0 0 238 121" fill="none" xmlns="http://www.w3.org/2000/svg">
<g clip-path="url(#clip0_2114_647)">
<path d="M198.002 120.633C198.002 114.763 197.364 108.91 196.099 103.181L187.387 105.153C188.509 110.235 189.075 115.426 189.075 120.633H198.002Z" fill="black" fill-opacity="0.04"/>
<path d="M195.307 99.9275C193.807 94.2573 191.695 88.7716 189.009 83.5693L181.098 87.7575C183.48 92.3719 185.354 97.2378 186.684 102.267L195.307 99.9275Z" fill="black" fill-opacity="0.04"/>
<path d="M187.417 80.633C184.519 75.5492 181.076 70.804 177.153 66.4829L170.582 72.6019C174.062 76.4347 177.115 80.6437 179.686 85.153L187.417 80.633Z" fill="black" fill-opacity="0.04"/>
<path d="M174.861 64.0641C170.762 59.9132 166.225 56.2318 161.33 53.0864L156.547 60.7191C160.888 63.5091 164.913 66.7745 168.549 70.4563L174.861 64.0641Z" fill="black" fill-opacity="0.04"/>
<path d="M158.498 51.3507C153.478 48.4156 148.154 46.0489 142.622 44.2935L139.953 52.9198C144.859 54.4769 149.582 56.5761 154.034 59.1795L158.498 51.3507Z" fill="black" fill-opacity="0.04"/>
<path d="M139.447 43.3588C133.847 41.8395 128.1 40.9489 122.308 40.7031L121.934 49.7352C127.072 49.9532 132.17 50.7432 137.136 52.0908L139.447 43.3588Z" fill="black" fill-opacity="0.04"/>
<path d="M118.999 40.6328C113.202 40.6328 107.423 41.2789 101.766 42.5595L103.713 51.3818C108.731 50.2459 113.857 49.6728 118.999 49.6728V40.6328Z" fill="black" fill-opacity="0.04"/>
<path d="M98.5521 43.3589C92.9528 44.8783 87.5356 47.0171 82.3984 49.7367L86.5343 57.748C91.0909 55.3357 95.896 53.4386 100.863 52.0909L98.5521 43.3589Z" fill="black" fill-opacity="0.04"/>
<path d="M79.5005 51.3506C74.4803 54.2857 69.7943 57.7714 65.5273 61.7448L71.5698 68.3992C75.3546 64.8747 79.5111 61.7829 83.964 59.1794L79.5005 51.3506Z" fill="black" fill-opacity="0.04"/>
<path d="M63.1374 64.0645C59.0384 68.2153 55.403 72.8105 52.2969 77.7669L59.8342 82.6108C62.5893 78.2144 65.8139 74.1384 69.4497 70.4566L63.1374 64.0645Z" fill="black" fill-opacity="0.04"/>
<path d="M50.5823 80.6328C47.6839 85.7166 45.3468 91.108 43.6133 96.7096L52.1318 99.4129C53.6694 94.4443 55.7424 89.6621 58.3133 85.1528L50.5823 80.6328Z" fill="black" fill-opacity="0.04"/>
<path d="M42.6919 99.9272C40.905 106.68 40 113.642 40 120.633H48.927C48.927 114.432 49.7297 108.257 51.3147 102.267L42.6919 99.9272Z" fill="black" fill-opacity="0.04"/>
<path d="M237.997 120.274C237.997 111.449 237.036 102.651 235.131 94.0391L217.711 97.9743C219.33 105.295 220.147 112.773 220.147 120.274H237.997Z" fill="#D1F3F3"/>
<path d="M238.001 120.274C238.001 111.449 237.04 102.651 235.135 94.0391L229.328 95.3508C231.138 103.533 232.051 111.891 232.051 120.274H238.001Z" fill="#ADECDF"/>
<path d="M233.946 89.1463C231.686 80.6222 228.505 72.3753 224.459 64.5547L208.641 72.9125C212.079 79.56 214.784 86.5699 216.705 93.8154L233.946 89.1463Z" fill="#D1F3F3"/>
<path d="M233.947 89.1463C231.687 80.6222 228.506 72.3753 224.46 64.5547L219.188 67.3406C223.03 74.7702 226.052 82.6047 228.199 90.7027L233.947 89.1463Z" fill="#ADEBDF"/>
<path d="M222.054 60.1394C217.688 52.4968 212.503 45.3631 206.592 38.8672L193.453 51.078C198.477 56.5995 202.884 62.6631 206.595 69.1593L222.054 60.1394Z" fill="#D1F3F3"/>
<path d="M222.06 60.1394C217.694 52.4968 212.509 45.3631 206.599 38.8672L202.219 42.9375C207.834 49.1086 212.759 55.8856 216.907 63.146L222.06 60.1394Z" fill="#ADEBE0"/>
<path d="M203.142 35.2296C196.968 28.9895 190.132 23.4552 182.76 18.7266L173.195 33.9582C179.462 37.9775 185.272 42.6816 190.52 47.9857L203.142 35.2296Z" fill="#D1F3F3"/>
<path d="M203.149 35.2296C196.974 28.9895 190.139 23.4552 182.766 18.7266L179.578 23.8038C186.582 28.2959 193.076 33.5535 198.941 39.4816L203.149 35.2296Z" fill="#ADEBE2"/>
<path d="M178.502 16.1171C170.94 11.7046 162.92 8.1468 154.588 5.50781L149.25 22.7222C156.333 24.9653 163.149 27.9895 169.577 31.7401L178.502 16.1171Z" fill="#D1F3F3"/>
<path d="M178.498 16.1171C170.936 11.7046 162.916 8.1468 154.584 5.50781L152.805 11.2459C160.72 13.753 168.339 17.1329 175.523 21.3247L178.498 16.1171Z" fill="#AEEBE4"/>
<path d="M149.798 4.10966C141.364 1.82562 132.706 0.486733 123.982 0.117188L123.234 18.1413C130.65 18.4554 138.009 19.5934 145.178 21.5349L149.798 4.10966Z" fill="#D1F3F3"/>
<path d="M149.8 4.10966C141.365 1.82562 132.708 0.486733 123.984 0.117188L123.734 6.12521C132.022 6.47628 140.247 7.74822 148.26 9.91806L149.8 4.10966Z" fill="#AEEBE6"/>
<path d="M118.998 0.0078125C110.266 0.00781239 101.561 0.979126 93.0391 2.90421L96.9329 20.5096C104.176 18.8733 111.576 18.0477 118.998 18.0477V0.0078125Z" fill="#D1F3F3"/>
<path d="M118.998 0.0078125C110.266 0.00781239 101.561 0.979126 93.0391 2.90421L94.337 8.77269C102.433 6.94386 110.703 6.02111 118.998 6.02111V0.0078125Z" fill="#AEEAE8"/>
<path d="M88.2 4.10938C79.7655 6.3934 71.6055 9.60873 63.8672 13.6973L72.137 29.6843C78.7146 26.209 85.6506 23.476 92.8199 21.5346L88.2 4.10938Z" fill="#D1F3F3"/>
<path d="M88.2 4.10938C79.7655 6.3934 71.6055 9.60873 63.8672 13.6973L66.6238 19.0263C73.9752 15.1422 81.7272 12.0876 89.7399 9.91777L88.2 4.10938Z" fill="#ACE9E9"/>
<path d="M59.5014 16.1172C51.9393 20.5296 44.8807 25.7698 38.4531 31.7431L50.5354 45.0223C55.9988 39.9449 61.9986 35.4908 68.4264 31.7402L59.5014 16.1172Z" fill="#D1F3F3"/>
<path d="M59.5014 16.1172C51.9393 20.5296 44.8807 25.7698 38.4531 31.7431L42.4805 36.1695C48.5867 30.4949 55.2924 25.5167 62.4764 21.3249L59.5014 16.1172Z" fill="#AEEAE8"/>
<path d="M34.8528 35.2344C28.6783 41.4745 23.2023 48.3825 18.5234 55.8335L33.5947 65.4998C37.5717 59.1664 42.2264 53.2946 47.4746 47.9905L34.8528 35.2344Z" fill="#D1F3F3"/>
<path d="M34.8528 35.2344C28.6783 41.4745 23.2023 48.3825 18.5234 55.8335L23.5472 59.0556C27.9921 51.9771 33.1943 45.4145 39.06 39.4864L34.8528 35.2344Z" fill="#AEEAE8"/>
<path d="M15.9429 60.1406C11.5769 67.7832 8.05652 75.8882 5.44531 84.3092L22.4785 89.7038C24.698 82.546 27.6904 75.6567 31.4014 69.1606L15.9429 60.1406Z" fill="#D1F3F3"/>
<path d="M15.9429 60.1406C11.5769 67.7832 8.05652 75.8882 5.44531 84.3092L11.123 86.1074C13.6037 78.1074 16.9481 70.4077 21.0957 63.1473L15.9429 60.1406Z" fill="#AEEAE8"/>
<path d="M4.05483 89.1484C1.36322 99.3005 9.09158e-07 109.765 0 120.276H17.85C17.85 111.342 19.0087 102.447 21.2966 93.8175L4.05483 89.1484Z" fill="#D1F3F3"/>
<path d="M4.05483 89.1484C1.36322 99.3005 9.09158e-07 109.765 0 120.276H5.95001C5.95001 110.291 7.24507 100.349 9.80209 90.7048L4.05483 89.1484Z" fill="#AEEAE8"/>
</g>
<defs>
<clipPath id="clip0_2114_647">
<rect width="238" height="121" fill="white"/>
</clipPath>
</defs>
</svg>
