<svg width="216" height="194" viewBox="0 0 216 194" fill="none" xmlns="http://www.w3.org/2000/svg">
<g filter="url(#filter0_d_2069_265)">
<path d="M92.0907 82.2504C93.5286 76.5347 99.1768 72.5866 104.892 72.0901C105.592 72.0186 106.295 71.9908 106.998 72.0027C108.265 72.0305 109.528 72.1973 110.755 72.4992C112.805 73.0036 114.759 73.8933 116.487 75.1008C116.832 75.3431 117.17 75.5973 117.496 75.8635C117.96 76.2527 119.994 78.1195 120.034 78.5644C120.34 78.759 120.57 79.184 120.765 79.4859C121.642 80.8364 122.429 82.306 122.766 83.8909C122.79 83.9941 122.802 84.1093 122.774 84.2126C123.366 84.304 124.284 83.9981 124.959 83.9782C125.126 83.9743 125.293 83.9743 125.459 83.9782C126.29 84.0061 127.12 84.153 127.906 84.4191C129.09 84.8124 130.186 85.4717 131.092 86.3297C132.577 87.7278 134.019 90.3215 133.785 92.4187C134.361 92.5419 136.049 93.4952 136.434 93.9321L136.462 94.0234C136.819 94.234 137.153 94.5795 137.439 94.8814C139.199 96.6966 140.104 99.1831 139.981 101.701C139.802 105.896 136.919 109.431 132.851 110.452C130.297 111.111 127.803 110.666 125.547 109.332C125.229 109.141 124.888 108.859 124.546 108.732C124.391 109.351 122.659 110.571 122.095 110.908C119.585 112.402 116.411 112.716 113.603 111.997C112.84 111.802 112.145 111.524 111.45 111.159C111.148 111 110.831 110.777 110.513 110.654C110.298 110.968 109.842 111.258 109.516 111.464C109.313 111.592 109.111 111.715 108.904 111.834C108.281 112.191 107.633 112.501 106.966 112.763C100.857 115.202 93.1393 113.331 89.1276 108.037C86.0215 109.749 82.0376 109.276 79.3287 107C77.3983 105.649 76.2305 103.095 76.024 100.8C75.9485 99.8265 76.0518 98.8415 76.3258 97.9081C77.2394 94.6987 80.1191 92.522 83.3523 92.0494C82.8677 90.0792 83.2014 87.9383 84.1825 86.1708C85.8308 83.2474 88.7701 81.7579 92.0907 82.2504Z" fill="#E0EBF2"/>
<path d="M120.038 78.5684C120.343 78.763 120.574 79.188 120.768 79.4899C121.646 80.8403 122.433 82.31 122.77 83.8948C122.794 83.9981 122.806 84.1133 122.778 84.2165C122.615 84.3715 122.314 84.4032 122.099 84.4588C122.186 84.2126 122.071 83.8233 122.024 83.5731C121.793 82.3934 121.372 81.17 120.832 80.0936C120.578 79.5772 120.268 79.0927 120.038 78.5684Z" fill="#BCD4E8"/>
<path d="M123.977 106.623C124.418 106.781 125.058 107.357 125.57 107.6C130.055 109.907 135.699 107.838 137.84 103.326C138.936 101.022 138.722 98.0867 137.578 95.8465C137.3 95.3063 136.624 94.504 136.477 94.0591C136.473 94.0472 136.469 94.0393 136.469 94.0273C136.827 94.2379 137.161 94.5834 137.447 94.8853C139.206 96.7005 140.112 99.187 139.989 101.705C139.81 105.9 136.926 109.435 132.859 110.456C130.305 111.115 127.81 110.67 125.554 109.335C125.237 109.145 124.895 108.863 124.553 108.736C124.398 109.355 122.667 110.575 122.103 110.912C119.592 112.406 116.419 112.72 113.611 112.001C112.848 111.806 112.153 111.528 111.458 111.163C111.156 111.004 110.838 110.781 110.52 110.658C110.306 110.972 109.849 111.262 109.523 111.468C109.321 111.595 109.118 111.719 108.912 111.838C108.288 112.195 107.641 112.505 106.973 112.767C100.864 115.206 93.1468 113.335 89.1351 108.041C86.029 109.752 82.045 109.28 79.3361 107.004C79.213 106.698 78.0015 105.522 77.6798 105.073C76.7067 103.699 76.0751 101.801 76.1029 100.108C76.1148 99.5087 76.23 98.9288 76.3293 98.3409C76.373 98.9367 76.5597 99.5246 76.655 100.112C76.7106 100.462 76.6868 100.823 76.7385 101.177C76.8894 102.21 77.4852 103.449 78.085 104.295C80.5397 107.747 85.9217 109.157 89.5164 106.686C93.7982 112.577 102.692 113.133 108.673 109.621C109.122 109.375 109.77 109.081 110.115 108.7C110.643 108.875 111.16 109.184 111.696 109.375C115.747 110.781 121.07 109.955 123.977 106.623Z" fill="#BCD4E8"/>
<path d="M104.972 72.6027C113.035 71.4866 120.777 79.236 118.993 87.2991C119.51 87.5414 121.543 88.737 121.738 89.2732C122.747 89.7379 124.359 92.5859 124.753 93.6345C126.127 97.3205 125.051 101.789 122.056 104.355C121.249 105.062 120.32 105.626 119.323 106.023C116.014 107.27 111.625 106.802 109.103 104.176C108.797 103.87 108.471 103.445 108.082 103.251C107.896 104.013 106.609 105.479 105.866 105.789C101.675 108.871 95.491 108.478 91.3958 105.415C90.6888 104.859 90.089 104.196 89.4853 103.537C89.2629 103.807 89.0285 104.069 88.7862 104.319C86.0217 107.167 81.0091 106.929 78.2406 104.2C77.2317 103.195 76.7828 101.312 76.7749 99.9261C77.8116 101.825 79.7102 103.247 81.9345 103.195C85.0724 103.124 87.1577 100.891 86.9512 97.7574C91.0185 102.266 98.3786 103.811 103.622 100.478C105.886 99.0007 107.474 96.8677 108.023 94.2065C108.182 93.424 108.428 91.434 107.991 90.7707C108.046 90.1947 107.161 88.6854 106.875 88.169C109.024 86.6795 112.134 86.2148 114.688 86.4174C115.133 86.1632 115.466 85.2059 115.617 84.7412C116.3 82.64 115.923 80.3481 114.93 78.4098C113.492 75.6016 110.684 73.8221 107.681 73.1032C106.799 72.8887 105.814 72.9006 104.972 72.6027Z" fill="#F1F4F8"/>
<path d="M92.3567 82.6875C93.87 76.9162 99.121 73.0197 104.968 72.5986C105.814 72.9005 106.799 72.8846 107.677 73.0951C110.68 73.8101 113.488 75.5935 114.926 78.4017C115.915 80.3361 116.292 82.6319 115.613 84.7331C115.462 85.1978 115.128 86.159 114.683 86.4093C112.129 86.2067 109.019 86.6714 106.87 88.1609C107.156 88.6773 108.046 90.1866 107.987 90.7626C108.427 91.4259 108.181 93.4159 108.018 94.1984C107.47 96.8636 105.881 98.9965 103.617 100.47C98.3703 103.803 91.0142 102.258 86.9468 97.7493C87.1534 100.887 85.0681 103.116 81.9302 103.187C79.7059 103.235 77.8073 101.813 76.7706 99.9181C76.6474 98.508 77.4021 96.6094 78.2402 95.4972C79.6304 93.6502 81.5449 92.832 83.7732 92.5063C83.6262 91.2273 83.3879 90.3932 83.6064 89.0745C84.2618 84.7966 88.0391 81.8733 92.3567 82.6875Z" fill="#FCFDFD"/>
</g>
<defs>
<filter id="filter0_d_2069_265" x="0" y="0" width="216" height="193.823" filterUnits="userSpaceOnUse" color-interpolation-filters="sRGB">
<feFlood flood-opacity="0" result="BackgroundImageFix"/>
<feColorMatrix in="SourceAlpha" type="matrix" values="0 0 0 0 0 0 0 0 0 0 0 0 0 0 0 0 0 0 127 0" result="hardAlpha"/>
<feOffset dy="4"/>
<feGaussianBlur stdDeviation="38"/>
<feComposite in2="hardAlpha" operator="out"/>
<feColorMatrix type="matrix" values="0 0 0 0 0.266667 0 0 0 0 0.435294 0 0 0 0 0.545098 0 0 0 1 0"/>
<feBlend mode="normal" in2="BackgroundImageFix" result="effect1_dropShadow_2069_265"/>
<feBlend mode="normal" in="SourceGraphic" in2="effect1_dropShadow_2069_265" result="shape"/>
</filter>
</defs>
</svg>
