<svg width="285" height="123" viewBox="0 0 285 123" fill="none" xmlns="http://www.w3.org/2000/svg">
<path d="M137.111 119.63V122.05H128.051V109.97H137.111V112.39H130.471V114.81H135.911V117.23H130.471V119.65H137.111V119.63ZM166.471 109.98V122.06H164.051L159.221 114.49V122.06H156.801V109.98H159.221L164.051 117.52V109.98H166.471ZM195.291 119.63V122.05H186.231V109.97H195.291V112.39H188.651V114.81H194.091V117.23H188.651V119.65H195.291V119.63ZM224.351 113.04C224.351 113.58 224.351 114.1 224.371 114.59C224.381 115.08 224.361 115.61 224.301 116.16C224.271 116.46 224.191 116.71 224.071 116.92C223.951 117.13 223.761 117.31 223.511 117.47C223.261 117.64 223.001 117.74 222.751 117.75C222.501 117.77 222.231 117.78 221.961 117.78L224.311 122.01H221.551L219.201 117.78H217.321V122.01H214.901V109.93H222.411C222.691 109.93 222.941 109.98 223.181 110.08C223.421 110.18 223.621 110.32 223.791 110.49C223.961 110.67 224.101 110.88 224.201 111.11C224.301 111.35 224.361 111.6 224.361 111.88V113.04H224.351ZM221.881 115.37V112.35H217.311V115.37H221.881ZM251.861 110.07C252.381 110.14 252.761 110.3 253.011 110.54C253.261 110.79 253.431 111.08 253.531 111.42C253.631 111.76 253.671 112.12 253.671 112.51C253.671 112.9 253.671 113.26 253.671 113.61H251.251V112.4H246.421V119.65H251.251V117.22H248.231V114.8H253.671V118.43C253.671 118.77 253.671 119.15 253.691 119.55C253.701 119.95 253.661 120.34 253.561 120.69C253.461 121.04 253.291 121.35 253.041 121.59C252.791 121.83 252.411 121.96 251.891 121.99C251.111 122.02 250.391 122.04 249.731 122.02C249.071 122.01 248.371 122 247.621 122C247.281 122 246.901 122 246.481 122C246.071 122 245.681 121.95 245.321 121.85C244.961 121.76 244.661 121.59 244.411 121.36C244.171 121.12 244.051 120.78 244.051 120.32C244.051 118.88 244.051 117.47 244.031 116.08C244.021 114.69 244.031 113.28 244.061 111.84C244.071 111.32 244.201 110.93 244.451 110.68C244.701 110.42 245.001 110.24 245.361 110.14C245.721 110.04 246.101 109.98 246.501 109.98H249.441C249.911 109.98 250.291 109.98 250.591 109.98C250.891 109.98 251.131 109.99 251.311 110.01C251.491 110.02 251.681 110.04 251.861 110.06V110.07ZM284.081 109.95L279.781 116.77V122.03H277.361V116.77L273.051 109.95H275.911L278.571 114.14L281.211 109.95H284.071H284.081Z" fill="#333333"/>
<path fill-rule="evenodd" clip-rule="evenodd" d="M282.619 98.42H265.379C264.579 98.42 263.929 97.77 263.929 96.97V39.36C263.929 38.7 263.499 38.14 262.869 37.97C262.229 37.8 261.579 38.06 261.239 38.63L226.289 97.71C226.019 98.16 225.569 98.42 225.049 98.42H215.009C214.479 98.42 214.029 98.16 213.769 97.71L178.819 38.63C178.479 38.06 177.829 37.8 177.189 37.97C176.549 38.14 176.129 38.7 176.129 39.36V96.97C176.129 97.77 175.479 98.42 174.679 98.42H157.439C156.639 98.42 155.989 97.77 155.989 96.97L155.969 1.45C155.969 0.65 156.619 0 157.419 0H172.389C176.839 0 180.649 2.18 182.919 6L218.789 66.65C219.059 67.1 219.509 67.36 220.029 67.36C220.549 67.36 221.009 67.1 221.269 66.65L257.139 6C259.409 2.19 263.229 0.01 267.669 0.01H282.639C283.439 0.01 284.089 0.66 284.089 1.46L284.069 96.98C284.069 97.78 283.419 98.43 282.619 98.43V98.42Z" fill="#333333"/>
<path fill-rule="evenodd" clip-rule="evenodd" d="M126.16 98.4178H139.88C140.68 98.4178 141.33 97.7678 141.33 96.9678V79.7278C141.33 78.9278 140.68 78.2778 139.88 78.2778H111.29C110.78 78.2778 110.35 78.5178 110.07 78.9478C109.8 79.3778 109.76 79.8678 109.98 80.3378L115.07 91.3278C117.12 95.7578 121.29 98.4178 126.17 98.4178H126.16ZM89.9001 20.1378H139.88C140.68 20.1378 141.33 19.4878 141.33 18.6878V1.45781C141.33 0.657813 140.68 0.0078125 139.88 0.0078125H75.0301C74.5201 0.0078125 74.0901 0.247813 73.8101 0.677813C73.5401 1.10781 73.5001 1.60781 73.7201 2.06781L78.8101 13.0578C80.8601 17.4778 85.0301 20.1478 89.9101 20.1478L89.9001 20.1378ZM108.03 59.2778H139.88C140.68 59.2778 141.33 58.6278 141.33 57.8278V40.5878C141.33 39.7878 140.68 39.1378 139.88 39.1378H93.1601C92.6501 39.1378 92.2201 39.3778 91.9401 39.8078C91.6701 40.2378 91.6301 40.7378 91.8501 41.1978L96.9401 52.1878C98.9901 56.6078 103.16 59.2778 108.04 59.2778H108.03Z" fill="#333333"/>
<path fill-rule="evenodd" clip-rule="evenodd" d="M46.5 0.0078125H60.7C61.28 0.0078125 61.77 0.327812 62.01 0.847812L107.2 98.4178H85.01L76.98 81.0778H30.22L22.19 98.4178H0L45.19 0.847812C45.43 0.327812 45.92 0.0078125 46.5 0.0078125ZM67.66 60.9478L53.6 30.5878L39.54 60.9478H67.66Z" fill="#333333"/>
</svg>
