<svg width="228" height="98" viewBox="0 0 228 98" fill="none" xmlns="http://www.w3.org/2000/svg">
<path d="M110.045 96.0454V97.9883H102.773V88.2899H110.045V90.2328H104.716V92.1757H109.082V94.1186H104.716V96.0615H110.045V96.0454ZM133.608 88.298V97.9964H131.666L127.789 91.9188V97.9964H125.847V88.298H127.789L131.666 94.3514V88.298H133.608ZM156.738 96.0454V97.9883H149.467V88.2899H156.738V90.2328H151.409V92.1757H155.775V94.1186H151.409V96.0615H156.738V96.0454ZM180.061 90.7547C180.061 91.1882 180.061 91.6057 180.077 91.9991C180.085 92.3925 180.069 92.818 180.02 93.2596C179.996 93.5004 179.932 93.7011 179.836 93.8697C179.74 94.0383 179.587 94.1828 179.386 94.3113C179.186 94.4478 178.977 94.5281 178.776 94.5361C178.576 94.5521 178.359 94.5602 178.142 94.5602L180.028 97.9562H177.813L175.927 94.5602H174.419V97.9562H172.476V88.2578H178.504C178.728 88.2578 178.929 88.298 179.122 88.3782C179.314 88.4585 179.475 88.5709 179.611 88.7074C179.748 88.8519 179.86 89.0205 179.94 89.2052C180.02 89.3979 180.069 89.5986 180.069 89.8234V90.7547H180.061ZM178.078 92.6253V90.2007H174.41V92.6253H178.078ZM202.139 88.3702C202.556 88.4264 202.861 88.5549 203.062 88.7476C203.263 88.9483 203.399 89.1811 203.479 89.4541C203.56 89.727 203.592 90.0161 203.592 90.3292C203.592 90.6423 203.592 90.9313 203.592 91.2123H201.65V90.2408H197.773V96.0615H201.65V94.1106H199.226V92.1677H203.592V95.082C203.592 95.355 203.592 95.6601 203.608 95.9812C203.616 96.3024 203.584 96.6155 203.504 96.8965C203.423 97.1775 203.287 97.4263 203.086 97.619C202.886 97.8117 202.581 97.9161 202.163 97.9402C201.537 97.9643 200.959 97.9803 200.43 97.9643C199.9 97.9562 199.338 97.9482 198.736 97.9482C198.463 97.9482 198.158 97.9482 197.821 97.9482C197.492 97.9482 197.179 97.908 196.89 97.8278C196.601 97.7555 196.361 97.619 196.16 97.4344C195.967 97.2417 195.871 96.9687 195.871 96.5994C195.871 95.4433 195.871 94.3113 195.855 93.1953C195.847 92.0794 195.855 90.9474 195.879 89.7913C195.887 89.3738 195.991 89.0607 196.192 88.8599C196.393 88.6512 196.634 88.5067 196.922 88.4264C197.211 88.3461 197.516 88.298 197.837 88.298H200.197C200.574 88.298 200.879 88.298 201.12 88.298C201.361 88.298 201.553 88.306 201.698 88.322C201.842 88.3301 201.995 88.3461 202.139 88.3622V88.3702ZM227.998 88.2739L224.547 93.7493V97.9723H222.605V93.7493L219.146 88.2739H221.441L223.576 91.6378L225.694 88.2739H227.99H227.998Z" fill="#333333"/>
<path fill-rule="evenodd" clip-rule="evenodd" d="M226.817 79.1805H212.981C212.339 79.1805 211.817 78.6575 211.817 78.0139V31.6657C211.817 31.1348 211.472 30.6842 210.966 30.5475C210.453 30.4107 209.931 30.6199 209.658 31.0785L181.608 78.6093C181.392 78.9713 181.03 79.1805 180.613 79.1805H172.555C172.13 79.1805 171.769 78.9713 171.56 78.6093L143.511 31.0785C143.238 30.6199 142.716 30.4107 142.202 30.5475C141.689 30.6842 141.352 31.1348 141.352 31.6657V78.0139C141.352 78.6575 140.83 79.1805 140.188 79.1805H126.352C125.71 79.1805 125.188 78.6575 125.188 78.0139L125.172 1.16655C125.172 0.522935 125.694 0 126.336 0H138.35C141.921 0 144.979 1.75384 146.801 4.8271L175.589 53.621C175.806 53.983 176.167 54.1922 176.584 54.1922C177.002 54.1922 177.371 53.983 177.579 53.621L206.367 4.8271C208.189 1.76189 211.255 0.00804516 214.819 0.00804516H226.833C227.475 0.00804516 227.997 0.530981 227.997 1.17459L227.981 78.022C227.981 78.6656 227.459 79.1885 226.817 79.1885V79.1805Z" fill="#333333"/>
<path fill-rule="evenodd" clip-rule="evenodd" d="M101.251 79.1783H112.263C112.905 79.1783 113.426 78.6553 113.426 78.0117V64.1419C113.426 63.4983 112.905 62.9753 112.263 62.9753H89.3171C88.9078 62.9753 88.5627 63.1684 88.338 63.5144C88.1213 63.8603 88.0892 64.2545 88.2658 64.6326L92.3508 73.4743C93.9961 77.0383 97.3428 79.1783 101.259 79.1783H101.251ZM72.1502 16.2008H112.263C112.905 16.2008 113.426 15.6778 113.426 15.0342V1.17241C113.426 0.528795 112.905 0.00585938 112.263 0.00585938H60.2161C59.8068 0.00585938 59.4617 0.198943 59.237 0.544885C59.0203 0.890827 58.9882 1.29308 59.1647 1.66316L63.2498 10.5048C64.895 14.0608 68.2418 16.2088 72.1583 16.2088L72.1502 16.2008ZM86.7008 47.6895H112.263C112.905 47.6895 113.426 47.1666 113.426 46.523V32.6531C113.426 32.0095 112.905 31.4866 112.263 31.4866H74.7666C74.3573 31.4866 74.0122 31.6797 73.7875 32.0256C73.5708 32.3715 73.5387 32.7738 73.7152 33.1439L77.8003 41.9855C79.4456 45.5415 82.7923 47.6895 86.7088 47.6895H86.7008Z" fill="url(#paint0_linear_2092_6038)"/>
<path fill-rule="evenodd" clip-rule="evenodd" d="M37.3193 0.0057373H48.7158C49.1812 0.0057373 49.5745 0.263182 49.7671 0.681531L86.0351 79.1782H68.2261L61.7815 65.2279H24.2535L17.8089 79.1782H0L36.268 0.681531C36.4606 0.263182 36.8538 0.0057373 37.3193 0.0057373ZM54.3016 49.0329L43.0175 24.6078L31.7335 49.0329H54.3016Z" fill="#333333"/>
<defs>
<linearGradient id="paint0_linear_2092_6038" x1="89.363" y1="6.59637" x2="89.3641" y2="74.3103" gradientUnits="userSpaceOnUse">
<stop stop-color="#84EED8"/>
<stop offset="0.35" stop-color="#5FF676"/>
<stop offset="1" stop-color="#39FF14"/>
</linearGradient>
</defs>
</svg>
