<svg width="285" height="123" viewBox="0 0 285 123" fill="none" xmlns="http://www.w3.org/2000/svg">
<path d="M137.111 120.099V122.519H128.051V110.439H137.111V112.859H130.471V115.279H135.911V117.699H130.471V120.119H137.111V120.099ZM166.471 110.449V122.529H164.051L159.221 114.959V122.529H156.801V110.449H159.221L164.051 117.989V110.449H166.471ZM195.291 120.099V122.519H186.231V110.439H195.291V112.859H188.651V115.279H194.091V117.699H188.651V120.119H195.291V120.099ZM224.351 113.509C224.351 114.049 224.351 114.569 224.371 115.059C224.381 115.549 224.361 116.079 224.301 116.629C224.271 116.929 224.191 117.179 224.071 117.389C223.951 117.599 223.761 117.779 223.511 117.939C223.261 118.109 223.001 118.209 222.751 118.219C222.501 118.239 222.231 118.249 221.961 118.249L224.311 122.479H221.551L219.201 118.249H217.321V122.479H214.901V110.399H222.411C222.691 110.399 222.941 110.449 223.181 110.549C223.421 110.649 223.621 110.789 223.791 110.959C223.961 111.139 224.101 111.349 224.201 111.579C224.301 111.819 224.361 112.069 224.361 112.349V113.509H224.351ZM221.881 115.839V112.819H217.311V115.839H221.881ZM251.861 110.539C252.381 110.609 252.761 110.769 253.011 111.009C253.261 111.259 253.431 111.549 253.531 111.889C253.631 112.229 253.671 112.589 253.671 112.979C253.671 113.369 253.671 113.729 253.671 114.079H251.251V112.869H246.421V120.119H251.251V117.689H248.231V115.269H253.671V118.899C253.671 119.239 253.671 119.619 253.691 120.019C253.701 120.419 253.661 120.809 253.561 121.159C253.461 121.509 253.291 121.819 253.041 122.059C252.791 122.299 252.411 122.429 251.891 122.459C251.111 122.489 250.391 122.509 249.731 122.489C249.071 122.479 248.371 122.469 247.621 122.469C247.281 122.469 246.901 122.469 246.481 122.469C246.071 122.469 245.681 122.419 245.321 122.319C244.961 122.229 244.661 122.059 244.411 121.829C244.171 121.589 244.051 121.249 244.051 120.789C244.051 119.349 244.051 117.939 244.031 116.549C244.021 115.159 244.031 113.749 244.061 112.309C244.071 111.789 244.201 111.399 244.451 111.149C244.701 110.889 245.001 110.709 245.361 110.609C245.721 110.509 246.101 110.449 246.501 110.449H249.441C249.911 110.449 250.291 110.449 250.591 110.449C250.891 110.449 251.131 110.459 251.311 110.479C251.491 110.489 251.681 110.509 251.861 110.529V110.539ZM284.081 110.419L279.781 117.239V122.499H277.361V117.239L273.051 110.419H275.911L278.571 114.609L281.211 110.419H284.071H284.081Z" fill="white"/>
<path fill-rule="evenodd" clip-rule="evenodd" d="M282.619 98.8897H265.379C264.579 98.8897 263.929 98.2397 263.929 97.4397V39.8297C263.929 39.1697 263.499 38.6097 262.869 38.4397C262.229 38.2697 261.579 38.5297 261.239 39.0997L226.289 98.1797C226.019 98.6297 225.569 98.8897 225.049 98.8897H215.009C214.479 98.8897 214.029 98.6297 213.769 98.1797L178.819 39.0997C178.479 38.5297 177.829 38.2697 177.189 38.4397C176.549 38.6097 176.129 39.1697 176.129 39.8297V97.4397C176.129 98.2397 175.479 98.8897 174.679 98.8897H157.439C156.639 98.8897 155.989 98.2397 155.989 97.4397L155.969 1.91973C155.969 1.11973 156.619 0.469727 157.419 0.469727H172.389C176.839 0.469727 180.649 2.64973 182.919 6.46973L218.789 67.1197C219.059 67.5697 219.509 67.8297 220.029 67.8297C220.549 67.8297 221.009 67.5697 221.269 67.1197L257.139 6.46973C259.409 2.65973 263.229 0.479727 267.669 0.479727H282.639C283.439 0.479727 284.089 1.12973 284.089 1.92973L284.069 97.4497C284.069 98.2497 283.419 98.8997 282.619 98.8997V98.8897Z" fill="white"/>
<path fill-rule="evenodd" clip-rule="evenodd" d="M126.16 98.8875H139.88C140.68 98.8875 141.33 98.2375 141.33 97.4375V80.1975C141.33 79.3975 140.68 78.7475 139.88 78.7475H111.29C110.78 78.7475 110.35 78.9875 110.07 79.4175C109.8 79.8475 109.76 80.3375 109.98 80.8075L115.07 91.7975C117.12 96.2275 121.29 98.8875 126.17 98.8875H126.16ZM89.9001 20.6075H139.88C140.68 20.6075 141.33 19.9575 141.33 19.1575V1.92754C141.33 1.12754 140.68 0.477539 139.88 0.477539H75.0301C74.5201 0.477539 74.0901 0.717539 73.8101 1.14754C73.5401 1.57754 73.5001 2.07754 73.7201 2.53754L78.8101 13.5275C80.8601 17.9475 85.0301 20.6175 89.9101 20.6175L89.9001 20.6075ZM108.03 59.7475H139.88C140.68 59.7475 141.33 59.0975 141.33 58.2975V41.0575C141.33 40.2575 140.68 39.6075 139.88 39.6075H93.1601C92.6501 39.6075 92.2201 39.8475 91.9401 40.2775C91.6701 40.7075 91.6301 41.2075 91.8501 41.6675L96.9401 52.6575C98.9901 57.0775 103.16 59.7475 108.04 59.7475H108.03Z" fill="url(#paint0_linear_115_6795)"/>
<path fill-rule="evenodd" clip-rule="evenodd" d="M46.5 0.477539H60.7C61.28 0.477539 61.77 0.797539 62.01 1.31754L107.2 98.8875H85.01L76.98 81.5475H30.22L22.19 98.8875H0L45.19 1.31754C45.43 0.797539 45.92 0.477539 46.5 0.477539ZM67.66 61.4175L53.6 31.0575L39.54 61.4175H67.66Z" fill="white"/>
<defs>
<linearGradient id="paint0_linear_115_6795" x1="111.347" y1="8.66944" x2="111.349" y2="92.8367" gradientUnits="userSpaceOnUse">
<stop stop-color="#84EED8"/>
<stop offset="0.35" stop-color="#5FF676"/>
<stop offset="1" stop-color="#39FF14"/>
</linearGradient>
</defs>
</svg>
